<svg xmlns="http://www.w3.org/2000/svg" xmlns:xlink="http://www.w3.org/1999/xlink" width="375" viewBox="0 0 375 120" height="120" version="1.0"><defs><clipPath id="d"><path d="M 0 0.441406 L 359.761719 0.441406 L 359.761719 118 L 0 118 Z M 0 0.441406"/></clipPath><clipPath id="c"><path d="M0 0H360V119H0z"/></clipPath><clipPath id="e"><path d="M 213 84 L 244 84 L 244 119 L 213 119 Z M 213 84"/></clipPath><clipPath id="f"><path d="M 237.308594 78.539062 L 253.503906 100.144531 L 225.296875 121.285156 L 209.101562 99.683594 Z M 237.308594 78.539062"/></clipPath><clipPath id="g"><path d="M 237.308594 78.539062 L 253.503906 100.144531 L 225.296875 121.285156 L 209.101562 99.683594 Z M 237.308594 78.539062"/></clipPath><clipPath id="h"><path d="M 216 85 L 243 85 L 243 117 L 216 117 Z M 216 85"/></clipPath><clipPath id="i"><path d="M 237.308594 78.539062 L 253.503906 100.144531 L 225.296875 121.285156 L 209.101562 99.683594 Z M 237.308594 78.539062"/></clipPath><clipPath id="j"><path d="M 237.308594 78.539062 L 253.503906 100.144531 L 225.296875 121.285156 L 209.101562 99.683594 Z M 237.308594 78.539062"/></clipPath><filter x="0%" y="0%" width="100%" xlink:type="simple" xlink:actuate="onLoad" height="100%" id="a" xlink:show="other"><feColorMatrix values="0 0 0 0 1 0 0 0 0 1 0 0 0 0 1 0 0 0 1 0" color-interpolation-filters="sRGB"/></filter><mask id="b"><g filter="url(#a)"><path fill-opacity=".749" d="M-37.5 -12H412.5V132H-37.5z"/></g></mask></defs><g mask="url(#b)"><g><g clip-path="url(#c)" transform="translate(6 1)"><g clip-path="url(#d)"><path fill="#F19820" d="M 2.523438 37.605469 C 21.402344 16.730469 53.285156 18.863281 88.046875 21.066406 C 101.097656 21.910156 112.5625 24.390625 123.929688 23.269531 C 136.9375 21.980469 149.148438 17.386719 160.820312 14.128906 C 180.960938 8.53125 211.136719 2.414062 234.0625 0.988281 C 244.703125 0.332031 257.804688 0.988281 269.078125 1.921875 C 287.300781 3.445312 309.21875 9.820312 321.453125 15.394531 C 328.589844 18.652344 335.886719 20.996094 340.707031 24.695312 C 363.539062 42.152344 362.390625 65.769531 353.339844 89.269531 C 351.769531 93.34375 347.140625 99.132812 342.835938 102.035156 L 339.328125 105.949219 C 332.191406 110.425781 324.378906 113.726562 316.191406 115.71875 C 287.183594 123.289062 238.433594 108.714844 201.664062 106.441406 C 187.746094 105.574219 173.917969 106.558594 161.40625 107.941406 C 148.890625 109.324219 138.410156 113.328125 123.765625 112.183594 C 102.761719 110.519531 82.550781 99.039062 71.90625 93.554688 C 60.746094 87.816406 50.78125 82.167969 40.957031 76.734375 L 25.800781 72.070312 C 19.296875 68.765625 10.617188 61.597656 6.171875 57.425781 C 2.851562 54.289062 -0.210938 48.664062 0.0429688 44.917969 C 0.183594 42.480469 3.15625 39.902344 2.523438 37.605469"/></g></g></g></g><g clip-path="url(#e)"><g clip-path="url(#f)"><g clip-path="url(#g)"><path fill="#223E5C" d="M 242.03125 84.835938 L 243.972656 87.425781 L 242.75 88.339844 L 243.703125 89.609375 L 238.558594 93.464844 L 240.464844 96.007812 L 239.179688 96.972656 L 242.039062 100.789062 L 240.753906 101.75 L 242.660156 104.292969 L 241.371094 105.257812 L 242.324219 106.527344 L 241.039062 107.492188 L 241.992188 108.765625 L 233.011719 115.496094 L 232.058594 114.226562 L 228.199219 117.117188 L 227.246094 115.847656 L 223.386719 118.738281 L 213.824219 105.980469 L 217.683594 103.089844 L 216.730469 101.816406 L 219.300781 99.890625 L 218.347656 98.617188 L 220.921875 96.691406 L 219.96875 95.417969 L 222.539062 93.492188 L 221.585938 92.21875 L 222.871094 91.253906 L 221.96875 90.046875 L 225.804688 87.171875 L 228.652344 90.964844 L 227.363281 91.929688 L 228.285156 93.15625 L 239.855469 84.480469 L 240.808594 85.75 Z M 242.03125 84.835938"/></g></g></g><g clip-path="url(#h)"><g clip-path="url(#i)"><g clip-path="url(#j)"><path fill="#223E5C" d="M 240.855469 85.816406 L 224.140625 98.347656 L 223.125 96.992188 L 226.984375 94.101562 L 226.03125 92.832031 L 227.316406 91.867188 L 225.472656 89.40625 L 222.917969 91.320312 L 223.871094 92.589844 L 222.585938 93.554688 L 223.539062 94.824219 L 220.96875 96.753906 L 221.921875 98.023438 L 219.347656 99.953125 L 220.300781 101.222656 L 217.730469 103.152344 L 218.683594 104.421875 L 216.109375 106.351562 L 223.671875 116.4375 L 226.246094 114.511719 L 227.199219 115.78125 L 231.054688 112.890625 L 232.007812 114.164062 L 240.992188 107.429688 L 240.039062 106.160156 L 241.324219 105.195312 L 240.433594 104.003906 L 236.574219 106.898438 L 235.5625 105.542969 L 240.703125 101.6875 L 238.859375 99.226562 L 235.003906 102.117188 L 233.988281 100.765625 L 239.132812 96.910156 L 237.285156 94.449219 L 232.144531 98.304688 L 231.128906 96.953125 L 242.703125 88.277344 Z M 240.855469 85.816406"/><path fill="#FFF" d="M 240.855469 85.816406 L 242.703125 88.277344 L 231.128906 96.953125 L 232.144531 98.304688 L 237.285156 94.449219 L 239.132812 96.910156 L 233.988281 100.765625 L 235.003906 102.117188 L 238.859375 99.226562 L 240.703125 101.6875 L 235.5625 105.542969 L 236.574219 106.898438 L 240.433594 104.003906 L 241.324219 105.195312 L 240.039062 106.160156 L 240.992188 107.429688 L 232.007812 114.164062 L 231.054688 112.890625 L 227.199219 115.78125 L 226.246094 114.511719 L 223.671875 116.441406 L 216.109375 106.351562 L 218.683594 104.421875 L 217.730469 103.152344 L 220.300781 101.222656 L 219.347656 99.953125 L 221.921875 98.023438 L 220.96875 96.753906 L 223.539062 94.824219 L 222.585938 93.554688 L 223.871094 92.589844 L 222.917969 91.320312 L 225.472656 89.40625 L 227.316406 91.867188 L 226.03125 92.832031 L 226.984375 94.101562 L 223.125 96.992188 L 224.140625 98.347656 Z M 240.855469 85.816406"/></g></g></g><g fill="#FFF"><g><g><path d="M 12.953125 -19.625 L 12.953125 0 L 8.03125 0 L 8.03125 -19.625 L 0.609375 -19.625 L 0.609375 -24.125 L 20.375 -24.125 L 20.375 -19.625 Z M 12.953125 -19.625" transform="translate(0 73.455)"/></g></g></g><g fill="#FFF"><g><g><path d="M 16.171875 0 L 10.03125 -9.140625 L 7.53125 -9.140625 L 7.53125 0 L 2.609375 0 L 2.609375 -24.125 L 11.390625 -24.125 C 14.484375 -24.125 16.75 -23.566406 18.1875 -22.453125 C 19.625 -21.335938 20.34375 -19.507812 20.34375 -16.96875 C 20.34375 -14.90625 19.910156 -13.265625 19.046875 -12.046875 C 18.179688 -10.828125 16.953125 -10.046875 15.359375 -9.703125 L 21.8125 0 Z M 15.359375 -16.75 C 15.359375 -17.976562 15.046875 -18.800781 14.421875 -19.21875 C 13.804688 -19.644531 12.78125 -19.859375 11.34375 -19.859375 L 7.53125 -19.859375 L 7.53125 -13.421875 L 11.140625 -13.421875 C 12.242188 -13.421875 13.09375 -13.523438 13.6875 -13.734375 C 14.28125 -13.941406 14.707031 -14.265625 14.96875 -14.703125 C 15.226562 -15.148438 15.359375 -15.832031 15.359375 -16.75 Z M 15.359375 -16.75" transform="translate(24.914 73.455)"/></g></g></g><g fill="#FFF"><g><g><path d="M 13.421875 0 L 1.78125 0 L 1.78125 -3.78125 L 5.140625 -3.78125 L 5.140625 -20.34375 L 1.78125 -20.34375 L 1.78125 -24.125 L 13.421875 -24.125 L 13.421875 -20.34375 L 10.078125 -20.34375 L 10.078125 -3.78125 L 13.421875 -3.78125 Z M 13.421875 0" transform="translate(51.221 73.455)"/></g></g></g><g fill="#FFF"><g><g><path d="M 19.96875 -6.984375 C 19.96875 -4.566406 19.171875 -2.710938 17.578125 -1.421875 C 15.992188 -0.140625 13.65625 0.5 10.5625 0.5 C 8.425781 0.5 6.566406 0.144531 4.984375 -0.5625 C 3.410156 -1.269531 2.132812 -2.414062 1.15625 -4 L 4.9375 -6.890625 C 5.488281 -6.097656 6.015625 -5.503906 6.515625 -5.109375 C 7.015625 -4.710938 7.609375 -4.40625 8.296875 -4.1875 C 8.984375 -3.96875 9.773438 -3.859375 10.671875 -3.859375 C 12.003906 -3.859375 13.046875 -4.085938 13.796875 -4.546875 C 14.546875 -5.003906 14.921875 -5.703125 14.921875 -6.640625 C 14.921875 -7.171875 14.789062 -7.617188 14.53125 -7.984375 C 14.269531 -8.347656 13.875 -8.660156 13.34375 -8.921875 C 12.820312 -9.179688 11.921875 -9.476562 10.640625 -9.8125 C 9.378906 -10.15625 8.191406 -10.492188 7.078125 -10.828125 C 5.972656 -11.171875 5.015625 -11.613281 4.203125 -12.15625 C 3.398438 -12.707031 2.765625 -13.394531 2.296875 -14.21875 C 1.835938 -15.050781 1.609375 -16.09375 1.609375 -17.34375 C 1.609375 -19.632812 2.378906 -21.421875 3.921875 -22.703125 C 5.460938 -23.992188 7.675781 -24.640625 10.5625 -24.640625 C 14.738281 -24.640625 17.691406 -23.207031 19.421875 -20.34375 L 15.671875 -17.421875 C 15.003906 -18.441406 14.257812 -19.171875 13.4375 -19.609375 C 12.613281 -20.054688 11.632812 -20.28125 10.5 -20.28125 C 9.351562 -20.28125 8.421875 -20.070312 7.703125 -19.65625 C 6.992188 -19.238281 6.640625 -18.59375 6.640625 -17.71875 C 6.640625 -16.9375 7.007812 -16.335938 7.75 -15.921875 C 8.5 -15.515625 9.796875 -15.097656 11.640625 -14.671875 C 12.660156 -14.410156 13.671875 -14.125 14.671875 -13.8125 C 15.671875 -13.507812 16.5625 -13.082031 17.34375 -12.53125 C 18.132812 -11.988281 18.769531 -11.273438 19.25 -10.390625 C 19.726562 -9.503906 19.96875 -8.367188 19.96875 -6.984375 Z M 19.96875 -6.984375" transform="translate(70.348 73.455)"/></g></g></g><g fill="#FFF"><g><g><path d="M 12.953125 -19.625 L 12.953125 0 L 8.03125 0 L 8.03125 -19.625 L 0.609375 -19.625 L 0.609375 -24.125 L 20.375 -24.125 L 20.375 -19.625 Z M 12.953125 -19.625" transform="translate(95.698 73.455)"/></g></g></g><g fill="#FFF"><g><g><path d="M 0.46875 0 L 8.453125 -24.125 L 14.859375 -24.125 L 22.859375 0 L 17.8125 0 L 16.21875 -4.90625 L 6.921875 -4.90625 L 5.359375 0 Z M 8.3125 -9.203125 L 14.8125 -9.203125 L 11.578125 -19.171875 Z M 8.3125 -9.203125" transform="translate(120.611 73.455)"/></g></g></g><g fill="#FFF"><g><g><path d="M 16.21875 0 L 7.421875 -17.234375 L 7.421875 0 L 2.609375 0 L 2.609375 -24.125 L 9 -24.125 L 17.171875 -7.859375 L 17.171875 -24.125 L 22 -24.125 L 22 0 Z M 16.21875 0" transform="translate(147.843 73.455)"/></g></g></g><g fill="#FFF"><g><g><path d="M 7.53125 -19.625 L 7.53125 -14.421875 L 16.421875 -14.421875 L 16.421875 -10.078125 L 7.53125 -10.078125 L 7.53125 0 L 2.609375 0 L 2.609375 -24.125 L 18.125 -24.125 L 18.125 -19.625 Z M 7.53125 -19.625" transform="translate(188.868 73.455)"/></g></g></g><g fill="#FFF"><g><g><path d="M 16.171875 0 L 10.03125 -9.140625 L 7.53125 -9.140625 L 7.53125 0 L 2.609375 0 L 2.609375 -24.125 L 11.390625 -24.125 C 14.484375 -24.125 16.75 -23.566406 18.1875 -22.453125 C 19.625 -21.335938 20.34375 -19.507812 20.34375 -16.96875 C 20.34375 -14.90625 19.910156 -13.265625 19.046875 -12.046875 C 18.179688 -10.828125 16.953125 -10.046875 15.359375 -9.703125 L 21.8125 0 Z M 15.359375 -16.75 C 15.359375 -17.976562 15.046875 -18.800781 14.421875 -19.21875 C 13.804688 -19.644531 12.78125 -19.859375 11.34375 -19.859375 L 7.53125 -19.859375 L 7.53125 -13.421875 L 11.140625 -13.421875 C 12.242188 -13.421875 13.09375 -13.523438 13.6875 -13.734375 C 14.28125 -13.941406 14.707031 -14.265625 14.96875 -14.703125 C 15.226562 -15.148438 15.359375 -15.832031 15.359375 -16.75 Z M 15.359375 -16.75" transform="translate(212.038 73.455)"/></g></g></g><g fill="#FFF"><g><g><path d="M 2.609375 0 L 2.609375 -24.125 L 18.28125 -24.125 L 18.28125 -19.78125 L 7.53125 -19.78125 L 7.53125 -14.640625 L 16.59375 -14.640625 L 16.59375 -10.28125 L 7.53125 -10.28125 L 7.53125 -4.5 L 18.28125 -4.5 L 18.28125 0 Z M 2.609375 0" transform="translate(238.346 73.455)"/></g></g></g><g fill="#FFF"><g><g><path d="M 18.5625 -17.34375 C 17.945312 -18.34375 17.195312 -19.082031 16.3125 -19.5625 C 15.4375 -20.039062 14.328125 -20.28125 12.984375 -20.28125 C 10.785156 -20.28125 9.195312 -19.570312 8.21875 -18.15625 C 7.238281 -16.738281 6.75 -14.640625 6.75 -11.859375 C 6.75 -9.085938 7.234375 -7.0625 8.203125 -5.78125 C 9.171875 -4.5 10.734375 -3.859375 12.890625 -3.859375 C 14.515625 -3.859375 16.007812 -4.191406 17.375 -4.859375 L 17.375 -8.609375 L 12.671875 -8.609375 L 12.671875 -12.953125 L 22.3125 -12.953125 L 22.3125 -2.28125 C 21.195312 -1.445312 19.8125 -0.773438 18.15625 -0.265625 C 16.5 0.242188 14.796875 0.5 13.046875 0.5 C 9.273438 0.5 6.4375 -0.476562 4.53125 -2.4375 C 2.625 -4.40625 1.671875 -7.546875 1.671875 -11.859375 C 1.671875 -20.378906 5.421875 -24.640625 12.921875 -24.640625 C 15.109375 -24.640625 17.015625 -24.269531 18.640625 -23.53125 C 20.265625 -22.800781 21.5 -21.726562 22.34375 -20.3125 Z M 18.5625 -17.34375" transform="translate(262.301 73.455)"/></g></g></g><g fill="#FFF"><g><g><path d="M 22.28125 -12.0625 C 22.28125 -7.863281 21.394531 -4.71875 19.625 -2.625 C 17.851562 -0.539062 15.273438 0.5 11.890625 0.5 C 8.316406 0.5 5.691406 -0.597656 4.015625 -2.796875 C 2.335938 -5.003906 1.5 -8.09375 1.5 -12.0625 C 1.5 -16.0625 2.335938 -19.15625 4.015625 -21.34375 C 5.691406 -23.539062 8.316406 -24.640625 11.890625 -24.640625 C 15.484375 -24.640625 18.113281 -23.539062 19.78125 -21.34375 C 21.445312 -19.15625 22.28125 -16.0625 22.28125 -12.0625 Z M 17.203125 -12.0625 C 17.203125 -14.925781 16.796875 -17.007812 15.984375 -18.3125 C 15.179688 -19.625 13.816406 -20.28125 11.890625 -20.28125 C 9.960938 -20.28125 8.59375 -19.625 7.78125 -18.3125 C 6.976562 -17.007812 6.578125 -14.925781 6.578125 -12.0625 C 6.578125 -9.207031 6.984375 -7.125 7.796875 -5.8125 C 8.617188 -4.507812 9.984375 -3.859375 11.890625 -3.859375 C 13.816406 -3.859375 15.179688 -4.507812 15.984375 -5.8125 C 16.796875 -7.125 17.203125 -9.207031 17.203125 -12.0625 Z M 17.203125 -12.0625" transform="translate(290.892 73.455)"/></g></g></g><g fill="#FFF"><g><g><path d="M 16.21875 0 L 7.421875 -17.234375 L 7.421875 0 L 2.609375 0 L 2.609375 -24.125 L 9 -24.125 L 17.171875 -7.859375 L 17.171875 -24.125 L 22 -24.125 L 22 0 Z M 16.21875 0" transform="translate(318.594 73.455)"/></g></g></g><g fill="#FFF"><g><g><path d="M 0.46875 0 L 8.453125 -24.125 L 14.859375 -24.125 L 22.859375 0 L 17.8125 0 L 16.21875 -4.90625 L 6.921875 -4.90625 L 5.359375 0 Z M 8.3125 -9.203125 L 14.8125 -9.203125 L 11.578125 -19.171875 Z M 8.3125 -9.203125" transform="translate(347.116 73.455)"/></g></g></g></svg>