<svg xmlns="http://www.w3.org/2000/svg" xmlns:xlink="http://www.w3.org/1999/xlink" width="375" viewBox="0 0 375 375" height="375" version="1.0"><defs><clipPath id="c"><path d="M0 0H317V294H0z"/></clipPath><clipPath id="d"><path d="M 136 54 L 208 54 L 208 110 L 136 110 Z M 136 54"/></clipPath><clipPath id="e"><path d="M 218.644531 92.152344 L 180.988281 129.804688 L 132.199219 81.015625 L 169.851562 43.359375 Z M 218.644531 92.152344"/></clipPath><clipPath id="f"><path d="M 218.644531 92.152344 L 180.988281 129.804688 L 132.199219 81.015625 L 169.851562 43.359375 Z M 218.644531 92.152344"/></clipPath><clipPath id="g"><path d="M 141 58 L 206 58 L 206 108 L 141 108 Z M 141 58"/></clipPath><clipPath id="h"><path d="M 218.644531 92.152344 L 180.988281 129.804688 L 132.199219 81.015625 L 169.851562 43.359375 Z M 218.644531 92.152344"/></clipPath><clipPath id="i"><path d="M 218.644531 92.152344 L 180.988281 129.804688 L 132.199219 81.015625 L 169.851562 43.359375 Z M 218.644531 92.152344"/></clipPath><filter x="0%" y="0%" width="100%" xlink:type="simple" xlink:actuate="onLoad" height="100%" id="a" xlink:show="other"><feColorMatrix values="0 0 0 0 1 0 0 0 0 1 0 0 0 0 1 0 0 0 1 0" color-interpolation-filters="sRGB"/></filter><mask id="b"><g filter="url(#a)"><path fill-opacity=".749" d="M-37.5 -37.5H412.5V412.5H-37.5z"/></g></mask></defs><g mask="url(#b)"><g><g clip-path="url(#c)" transform="translate(8 37)"><path fill="#F19820" d="M 30.4375 99.023438 C 30.4375 99.023438 0.28125 158.707031 18.164062 188.65625 C 36.046875 218.605469 54.667969 274.585938 103.871094 283.792969 C 153.074219 293 235.925781 266.648438 261.742188 240.617188 C 287.5625 214.582031 315.8125 136.800781 261.003906 72.777344 C 206.191406 8.753906 129.054688 0.5 30.4375 99.023438 Z M 30.4375 99.023438"/></g></g></g><g clip-path="url(#d)"><g clip-path="url(#e)"><g clip-path="url(#f)"><path fill="#223E5C" d="M 207.667969 103.132812 L 203.160156 107.640625 L 201.046875 105.527344 L 198.828125 107.742188 L 189.933594 98.847656 L 185.5 103.277344 L 183.277344 101.054688 L 176.628906 107.699219 L 174.40625 105.476562 L 169.976562 109.90625 L 167.75 107.679688 L 165.535156 109.898438 L 163.3125 107.671875 L 161.09375 109.886719 L 145.558594 94.351562 L 147.773438 92.132812 L 141.101562 85.460938 L 143.316406 83.246094 L 136.644531 76.574219 L 158.875 54.339844 L 165.550781 61.011719 L 167.765625 58.796875 L 172.214844 63.246094 L 174.429688 61.03125 L 178.878906 65.480469 L 181.09375 63.265625 L 185.542969 67.710938 L 187.757812 65.496094 L 189.980469 67.722656 L 192.085938 65.617188 L 198.726562 72.257812 L 192.113281 78.871094 L 189.886719 76.648438 L 187.75 78.785156 L 207.769531 98.804688 L 205.554688 101.019531 Z M 207.667969 103.132812"/></g></g></g><g clip-path="url(#g)"><g clip-path="url(#h)"><g clip-path="url(#i)"><path fill="#223E5C" d="M 205.441406 101.128906 L 176.527344 72.210938 L 178.886719 69.855469 L 185.558594 76.527344 L 187.773438 74.3125 L 189.996094 76.535156 L 194.285156 72.246094 L 189.871094 67.832031 L 187.65625 70.046875 L 185.429688 67.824219 L 183.214844 70.039062 L 178.765625 65.589844 L 176.550781 67.804688 L 172.101562 63.355469 L 169.886719 65.570312 L 165.4375 61.125 L 163.222656 63.339844 L 158.773438 58.890625 L 141.191406 76.46875 L 145.640625 80.917969 L 143.425781 83.132812 L 150.097656 89.808594 L 147.882812 92.023438 L 163.421875 107.5625 L 165.636719 105.34375 L 167.859375 107.570312 L 169.933594 105.496094 L 163.261719 98.824219 L 165.621094 96.464844 L 174.515625 105.363281 L 178.804688 101.074219 L 172.132812 94.402344 L 174.488281 92.042969 L 183.386719 100.941406 L 187.675781 96.652344 L 178.777344 87.757812 L 181.136719 85.398438 L 201.15625 105.417969 Z M 205.441406 101.128906"/><path fill="#FFF" d="M 205.441406 101.128906 L 201.15625 105.417969 L 181.136719 85.398438 L 178.777344 87.757812 L 187.675781 96.652344 L 183.386719 100.941406 L 174.488281 92.042969 L 172.132812 94.402344 L 178.804688 101.074219 L 174.515625 105.363281 L 165.617188 96.464844 L 163.261719 98.824219 L 169.933594 105.496094 L 167.859375 107.570312 L 165.636719 105.34375 L 163.421875 107.558594 L 147.882812 92.023438 L 150.097656 89.808594 L 143.425781 83.132812 L 145.640625 80.917969 L 141.191406 76.46875 L 158.773438 58.890625 L 163.222656 63.339844 L 165.4375 61.121094 L 169.886719 65.570312 L 172.101562 63.355469 L 176.550781 67.804688 L 178.765625 65.589844 L 183.214844 70.039062 L 185.429688 67.824219 L 187.65625 70.046875 L 189.871094 67.832031 L 194.285156 72.246094 L 189.996094 76.535156 L 187.773438 74.3125 L 185.558594 76.527344 L 178.882812 69.855469 L 176.527344 72.210938 Z M 205.441406 101.128906"/></g></g></g><g fill="#FFF"><g><g><path d="M 25.640625 -38.859375 L 25.640625 0 L 15.90625 0 L 15.90625 -38.859375 L 1.203125 -38.859375 L 1.203125 -47.765625 L 40.34375 -47.765625 L 40.34375 -38.859375 Z M 25.640625 -38.859375" transform="translate(0 185.152)"/></g></g></g><g fill="#FFF"><g><g><path d="M 32.015625 0 L 19.84375 -18.078125 L 14.90625 -18.078125 L 14.90625 0 L 5.171875 0 L 5.171875 -47.765625 L 22.53125 -47.765625 C 28.675781 -47.765625 33.164062 -46.660156 36 -44.453125 C 38.84375 -42.242188 40.265625 -38.617188 40.265625 -33.578125 C 40.265625 -29.503906 39.40625 -26.257812 37.6875 -23.84375 C 35.976562 -21.425781 33.550781 -19.882812 30.40625 -19.21875 L 43.171875 0 Z M 30.40625 -33.15625 C 30.40625 -35.59375 29.785156 -37.222656 28.546875 -38.046875 C 27.316406 -38.878906 25.289062 -39.296875 22.46875 -39.296875 L 14.90625 -39.296875 L 14.90625 -26.578125 L 22.046875 -26.578125 C 24.234375 -26.578125 25.910156 -26.78125 27.078125 -27.1875 C 28.253906 -27.601562 29.101562 -28.25 29.625 -29.125 C 30.144531 -30 30.40625 -31.34375 30.40625 -33.15625 Z M 30.40625 -33.15625" transform="translate(49.314 185.152)"/></g></g></g><g fill="#FFF"><g><g><path d="M 26.578125 0 L 3.515625 0 L 3.515625 -7.484375 L 10.1875 -7.484375 L 10.1875 -40.265625 L 3.515625 -40.265625 L 3.515625 -47.765625 L 26.578125 -47.765625 L 26.578125 -40.265625 L 19.953125 -40.265625 L 19.953125 -7.484375 L 26.578125 -7.484375 Z M 26.578125 0" transform="translate(101.388 185.152)"/></g></g></g><g fill="#FFF"><g><g><path d="M 39.515625 -13.84375 C 39.515625 -9.050781 37.941406 -5.378906 34.796875 -2.828125 C 31.660156 -0.273438 27.03125 1 20.90625 1 C 16.675781 1 13 0.300781 9.875 -1.09375 C 6.757812 -2.5 4.226562 -4.769531 2.28125 -7.90625 L 9.765625 -13.625 C 10.867188 -12.0625 11.914062 -10.890625 12.90625 -10.109375 C 13.894531 -9.328125 15.066406 -8.71875 16.421875 -8.28125 C 17.785156 -7.84375 19.351562 -7.625 21.125 -7.625 C 23.769531 -7.625 25.832031 -8.078125 27.3125 -8.984375 C 28.789062 -9.898438 29.53125 -11.285156 29.53125 -13.140625 C 29.53125 -14.203125 29.269531 -15.085938 28.75 -15.796875 C 28.238281 -16.515625 27.460938 -17.128906 26.421875 -17.640625 C 25.390625 -18.160156 23.597656 -18.753906 21.046875 -19.421875 C 18.566406 -20.085938 16.226562 -20.757812 14.03125 -21.4375 C 11.832031 -22.125 9.929688 -23.003906 8.328125 -24.078125 C 6.734375 -25.160156 5.472656 -26.519531 4.546875 -28.15625 C 3.628906 -29.789062 3.171875 -31.847656 3.171875 -34.328125 C 3.171875 -38.867188 4.703125 -42.410156 7.765625 -44.953125 C 10.828125 -47.492188 15.207031 -48.765625 20.90625 -48.765625 C 29.164062 -48.765625 35.007812 -45.929688 38.4375 -40.265625 L 31.015625 -34.46875 C 29.710938 -36.5 28.242188 -37.945312 26.609375 -38.8125 C 24.972656 -39.6875 23.03125 -40.125 20.78125 -40.125 C 18.519531 -40.125 16.679688 -39.71875 15.265625 -38.90625 C 13.847656 -38.09375 13.140625 -36.8125 13.140625 -35.0625 C 13.140625 -33.519531 13.875 -32.335938 15.34375 -31.515625 C 16.820312 -30.703125 19.390625 -29.882812 23.046875 -29.0625 C 25.078125 -28.53125 27.078125 -27.957031 29.046875 -27.34375 C 31.023438 -26.738281 32.789062 -25.894531 34.34375 -24.8125 C 35.90625 -23.726562 37.15625 -22.3125 38.09375 -20.5625 C 39.039062 -18.8125 39.515625 -16.570312 39.515625 -13.84375 Z M 39.515625 -13.84375" transform="translate(139.248 185.152)"/></g></g></g><g fill="#FFF"><g><g><path d="M 25.640625 -38.859375 L 25.640625 0 L 15.90625 0 L 15.90625 -38.859375 L 1.203125 -38.859375 L 1.203125 -47.765625 L 40.34375 -47.765625 L 40.34375 -38.859375 Z M 25.640625 -38.859375" transform="translate(189.425 185.152)"/></g></g></g><g fill="#FFF"><g><g><path d="M 0.9375 0 L 16.734375 -47.765625 L 29.40625 -47.765625 L 45.234375 0 L 35.265625 0 L 32.09375 -9.703125 L 13.703125 -9.703125 L 10.59375 0 Z M 16.453125 -18.21875 L 29.328125 -18.21875 L 22.90625 -37.953125 Z M 16.453125 -18.21875" transform="translate(238.739 185.152)"/></g></g></g><g fill="#FFF"><g><g><path d="M 32.09375 0 L 14.703125 -34.125 L 14.703125 0 L 5.171875 0 L 5.171875 -47.765625 L 17.8125 -47.765625 L 33.984375 -15.5625 L 33.984375 -47.765625 L 43.546875 -47.765625 L 43.546875 0 Z M 32.09375 0" transform="translate(292.642 185.152)"/></g></g></g><g fill="#FFF"><g><g><path d="M 14.90625 -38.859375 L 14.90625 -28.53125 L 32.5 -28.53125 L 32.5 -19.953125 L 14.90625 -19.953125 L 14.90625 0 L 5.171875 0 L 5.171875 -47.765625 L 35.890625 -47.765625 L 35.890625 -38.859375 Z M 14.90625 -38.859375" transform="translate(0 268.43)"/></g></g></g><g fill="#FFF"><g><g><path d="M 32.015625 0 L 19.84375 -18.078125 L 14.90625 -18.078125 L 14.90625 0 L 5.171875 0 L 5.171875 -47.765625 L 22.53125 -47.765625 C 28.675781 -47.765625 33.164062 -46.660156 36 -44.453125 C 38.84375 -42.242188 40.265625 -38.617188 40.265625 -33.578125 C 40.265625 -29.503906 39.40625 -26.257812 37.6875 -23.84375 C 35.976562 -21.425781 33.550781 -19.882812 30.40625 -19.21875 L 43.171875 0 Z M 30.40625 -33.15625 C 30.40625 -35.59375 29.785156 -37.222656 28.546875 -38.046875 C 27.316406 -38.878906 25.289062 -39.296875 22.46875 -39.296875 L 14.90625 -39.296875 L 14.90625 -26.578125 L 22.046875 -26.578125 C 24.234375 -26.578125 25.910156 -26.78125 27.078125 -27.1875 C 28.253906 -27.601562 29.101562 -28.25 29.625 -29.125 C 30.144531 -30 30.40625 -31.34375 30.40625 -33.15625 Z M 30.40625 -33.15625" transform="translate(45.864 268.43)"/></g></g></g><g fill="#FFF"><g><g><path d="M 5.171875 0 L 5.171875 -47.765625 L 36.203125 -47.765625 L 36.203125 -39.171875 L 14.90625 -39.171875 L 14.90625 -28.984375 L 32.84375 -28.984375 L 32.84375 -20.359375 L 14.90625 -20.359375 L 14.90625 -8.90625 L 36.203125 -8.90625 L 36.203125 0 Z M 5.171875 0" transform="translate(97.938 268.43)"/></g></g></g><g fill="#FFF"><g><g><path d="M 36.75 -34.328125 C 35.53125 -36.304688 34.046875 -37.765625 32.296875 -38.703125 C 30.546875 -39.648438 28.347656 -40.125 25.703125 -40.125 C 21.359375 -40.125 18.210938 -38.726562 16.265625 -35.9375 C 14.328125 -33.144531 13.359375 -28.988281 13.359375 -23.46875 C 13.359375 -17.988281 14.316406 -13.976562 16.234375 -11.4375 C 18.160156 -8.894531 21.25 -7.625 25.5 -7.625 C 28.71875 -7.625 31.6875 -8.289062 34.40625 -9.625 L 34.40625 -17.046875 L 25.09375 -17.046875 L 25.09375 -25.640625 L 44.171875 -25.640625 L 44.171875 -4.515625 C 41.960938 -2.859375 39.21875 -1.523438 35.9375 -0.515625 C 32.65625 0.492188 29.28125 1 25.8125 1 C 18.351562 1 12.738281 -0.941406 8.96875 -4.828125 C 5.195312 -8.710938 3.3125 -14.925781 3.3125 -23.46875 C 3.3125 -40.332031 10.726562 -48.765625 25.5625 -48.765625 C 29.894531 -48.765625 33.671875 -48.035156 36.890625 -46.578125 C 40.109375 -45.128906 42.554688 -43.003906 44.234375 -40.203125 Z M 36.75 -34.328125" transform="translate(145.355 268.43)"/></g></g></g><g fill="#FFF"><g><g><path d="M 44.09375 -23.875 C 44.09375 -15.570312 42.335938 -9.347656 38.828125 -5.203125 C 35.328125 -1.066406 30.226562 1 23.53125 1 C 16.46875 1 11.273438 -1.175781 7.953125 -5.53125 C 4.628906 -9.894531 2.96875 -16.007812 2.96875 -23.875 C 2.96875 -31.789062 4.628906 -37.914062 7.953125 -42.25 C 11.273438 -46.59375 16.46875 -48.765625 23.53125 -48.765625 C 30.644531 -48.765625 35.847656 -46.59375 39.140625 -42.25 C 42.441406 -37.914062 44.09375 -31.789062 44.09375 -23.875 Z M 34.0625 -23.875 C 34.0625 -29.539062 33.257812 -33.664062 31.65625 -36.25 C 30.0625 -38.832031 27.351562 -40.125 23.53125 -40.125 C 19.71875 -40.125 17.007812 -38.832031 15.40625 -36.25 C 13.8125 -33.664062 13.015625 -29.539062 13.015625 -23.875 C 13.015625 -18.21875 13.820312 -14.09375 15.4375 -11.5 C 17.0625 -8.914062 19.757812 -7.625 23.53125 -7.625 C 27.351562 -7.625 30.0625 -8.914062 31.65625 -11.5 C 33.257812 -14.09375 34.0625 -18.21875 34.0625 -23.875 Z M 34.0625 -23.875" transform="translate(201.949 268.43)"/></g></g></g><g fill="#FFF"><g><g><path d="M 32.09375 0 L 14.703125 -34.125 L 14.703125 0 L 5.171875 0 L 5.171875 -47.765625 L 17.8125 -47.765625 L 33.984375 -15.5625 L 33.984375 -47.765625 L 43.546875 -47.765625 L 43.546875 0 Z M 32.09375 0" transform="translate(256.783 268.43)"/></g></g></g><g fill="#FFF"><g><g><path d="M 0.9375 0 L 16.734375 -47.765625 L 29.40625 -47.765625 L 45.234375 0 L 35.265625 0 L 32.09375 -9.703125 L 13.703125 -9.703125 L 10.59375 0 Z M 16.453125 -18.21875 L 29.328125 -18.21875 L 22.90625 -37.953125 Z M 16.453125 -18.21875" transform="translate(313.24 268.43)"/></g></g></g></svg>