<svg xmlns="http://www.w3.org/2000/svg" xmlns:xlink="http://www.w3.org/1999/xlink" width="375" viewBox="0 0 375 120" height="120" version="1.0"><defs><clipPath id="d"><path d="M 0 0.441406 L 359.761719 0.441406 L 359.761719 118 L 0 118 Z M 0 0.441406"/></clipPath><clipPath id="c"><path d="M0 0H360V119H0z"/></clipPath><clipPath id="e"><path d="M 90 64 L 111 64 L 111 94 L 90 94 Z M 90 64"/></clipPath><clipPath id="f"><path d="M 95.660156 62.660156 L 114.398438 70.34375 L 104.4375 94.628906 L 85.699219 86.945312 Z M 95.660156 62.660156"/></clipPath><clipPath id="g"><path d="M 95.660156 62.660156 L 114.398438 70.34375 L 104.4375 94.628906 L 85.699219 86.945312 Z M 95.660156 62.660156"/></clipPath><clipPath id="h"><path d="M 91 65 L 110 65 L 110 93 L 91 93 Z M 91 65"/></clipPath><clipPath id="i"><path d="M 95.660156 62.660156 L 114.398438 70.34375 L 104.4375 94.628906 L 85.699219 86.945312 Z M 95.660156 62.660156"/></clipPath><clipPath id="j"><path d="M 95.660156 62.660156 L 114.398438 70.34375 L 104.4375 94.628906 L 85.699219 86.945312 Z M 95.660156 62.660156"/></clipPath><filter x="0%" y="0%" width="100%" xlink:type="simple" xlink:actuate="onLoad" height="100%" id="a" xlink:show="other"><feColorMatrix values="0 0 0 0 1 0 0 0 0 1 0 0 0 0 1 0 0 0 1 0" color-interpolation-filters="sRGB"/></filter><mask id="b"><g filter="url(#a)"><path fill-opacity=".749" d="M-37.5 -12H412.5V132H-37.5z"/></g></mask></defs><g mask="url(#b)"><g><g clip-path="url(#c)" transform="translate(6 1)"><g clip-path="url(#d)"><path fill="#F19820" d="M 2.523438 37.605469 C 21.402344 16.730469 53.285156 18.863281 88.046875 21.066406 C 101.097656 21.910156 112.5625 24.390625 123.929688 23.269531 C 136.9375 21.980469 149.148438 17.386719 160.820312 14.128906 C 180.960938 8.53125 211.136719 2.414062 234.0625 0.988281 C 244.703125 0.332031 257.804688 0.988281 269.078125 1.921875 C 287.300781 3.445312 309.21875 9.820312 321.453125 15.394531 C 328.589844 18.652344 335.886719 20.996094 340.707031 24.695312 C 363.539062 42.152344 362.390625 65.769531 353.339844 89.269531 C 351.769531 93.34375 347.140625 99.132812 342.835938 102.035156 L 339.328125 105.949219 C 332.191406 110.425781 324.378906 113.726562 316.191406 115.71875 C 287.183594 123.289062 238.433594 108.714844 201.664062 106.441406 C 187.746094 105.574219 173.917969 106.558594 161.40625 107.941406 C 148.890625 109.324219 138.410156 113.328125 123.765625 112.183594 C 102.761719 110.519531 82.550781 99.039062 71.90625 93.554688 C 60.746094 87.816406 50.78125 82.167969 40.957031 76.734375 L 25.800781 72.070312 C 19.296875 68.765625 10.617188 61.597656 6.171875 57.425781 C 2.851562 54.289062 -0.210938 48.664062 0.0429688 44.917969 C 0.183594 42.480469 3.15625 39.902344 2.523438 37.605469"/></g></g></g></g><g clip-path="url(#e)"><g clip-path="url(#f)"><g clip-path="url(#g)"><path fill="#223E5C" d="M 101.125 64.898438 L 103.367188 65.820312 L 102.9375 66.871094 L 104.039062 67.324219 L 102.222656 71.75 L 104.425781 72.65625 L 103.972656 73.761719 L 107.28125 75.121094 L 106.824219 76.226562 L 109.03125 77.128906 L 108.574219 78.238281 L 109.679688 78.691406 L 109.222656 79.796875 L 110.328125 80.25 L 107.152344 87.984375 L 106.050781 87.53125 L 104.6875 90.851562 L 103.585938 90.402344 L 102.226562 93.722656 L 91.164062 89.1875 L 92.527344 85.863281 L 91.425781 85.414062 L 92.332031 83.199219 L 91.230469 82.746094 L 92.136719 80.53125 L 91.035156 80.078125 L 91.945312 77.863281 L 90.84375 77.414062 L 91.296875 76.304688 L 90.25 75.875 L 91.605469 72.570312 L 94.894531 73.921875 L 94.441406 75.027344 L 95.503906 75.464844 L 99.59375 65.5 L 100.695312 65.949219 Z M 101.125 64.898438"/></g></g></g><g clip-path="url(#h)"><g clip-path="url(#i)"><g clip-path="url(#j)"><path fill="#223E5C" d="M 100.75 65.972656 L 94.84375 80.367188 L 93.671875 79.886719 L 95.035156 76.566406 L 93.933594 76.113281 L 94.386719 75.003906 L 92.253906 74.128906 L 91.351562 76.328125 L 92.453125 76.78125 L 92 77.886719 L 93.101562 78.339844 L 92.195312 80.554688 L 93.296875 81.007812 L 92.386719 83.222656 L 93.488281 83.671875 L 92.582031 85.886719 L 93.683594 86.339844 L 92.773438 88.554688 L 101.519531 92.140625 L 102.429688 89.925781 L 103.53125 90.378906 L 104.894531 87.058594 L 105.996094 87.507812 L 109.167969 79.773438 L 108.066406 79.324219 L 108.519531 78.214844 L 107.488281 77.792969 L 106.128906 81.113281 L 104.953125 80.632812 L 106.769531 76.203125 L 104.636719 75.328125 L 103.273438 78.652344 L 102.101562 78.167969 L 103.917969 73.742188 L 101.785156 72.867188 L 99.96875 77.292969 L 98.796875 76.8125 L 102.882812 66.847656 Z M 100.75 65.972656"/><path fill="#FFF" d="M 100.75 65.972656 L 102.882812 66.847656 L 98.796875 76.8125 L 99.96875 77.292969 L 101.785156 72.867188 L 103.917969 73.742188 L 102.101562 78.167969 L 103.273438 78.652344 L 104.636719 75.328125 L 106.769531 76.203125 L 104.953125 80.632812 L 106.128906 81.113281 L 107.488281 77.792969 L 108.519531 78.214844 L 108.066406 79.324219 L 109.167969 79.773438 L 105.996094 87.507812 L 104.894531 87.058594 L 103.53125 90.378906 L 102.429688 89.925781 L 101.519531 92.140625 L 92.773438 88.554688 L 93.683594 86.339844 L 92.582031 85.886719 L 93.488281 83.671875 L 92.386719 83.222656 L 93.296875 81.007812 L 92.195312 80.554688 L 93.101562 78.339844 L 92 77.886719 L 92.453125 76.78125 L 91.351562 76.328125 L 92.253906 74.128906 L 94.386719 75.003906 L 93.933594 76.113281 L 95.035156 76.566406 L 93.671875 79.886719 L 94.84375 80.367188 Z M 100.75 65.972656"/></g></g></g><g fill="#FFF"><g><g><path d="M 7.90625 -11.96875 L 7.90625 0 L 4.90625 0 L 4.90625 -11.96875 L 0.375 -11.96875 L 0.375 -14.71875 L 12.4375 -14.71875 L 12.4375 -11.96875 Z M 7.90625 -11.96875" transform="translate(85.641 57.953)"/></g></g></g><g fill="#FFF"><g><g><path d="M 9.875 0 L 6.109375 -5.578125 L 4.59375 -5.578125 L 4.59375 0 L 1.59375 0 L 1.59375 -14.71875 L 6.9375 -14.71875 C 8.832031 -14.71875 10.21875 -14.375 11.09375 -13.6875 C 11.96875 -13.007812 12.40625 -11.894531 12.40625 -10.34375 C 12.40625 -9.09375 12.140625 -8.09375 11.609375 -7.34375 C 11.085938 -6.601562 10.34375 -6.128906 9.375 -5.921875 L 13.3125 0 Z M 9.375 -10.21875 C 9.375 -10.96875 9.179688 -11.46875 8.796875 -11.71875 C 8.421875 -11.976562 7.796875 -12.109375 6.921875 -12.109375 L 4.59375 -12.109375 L 4.59375 -8.1875 L 6.796875 -8.1875 C 7.472656 -8.1875 7.988281 -8.25 8.34375 -8.375 C 8.707031 -8.507812 8.96875 -8.707031 9.125 -8.96875 C 9.289062 -9.238281 9.375 -9.65625 9.375 -10.21875 Z M 9.375 -10.21875" transform="translate(100.838 57.953)"/></g></g></g><g fill="#FFF"><g><g><path d="M 8.1875 0 L 1.078125 0 L 1.078125 -2.3125 L 3.140625 -2.3125 L 3.140625 -12.40625 L 1.078125 -12.40625 L 1.078125 -14.71875 L 8.1875 -14.71875 L 8.1875 -12.40625 L 6.140625 -12.40625 L 6.140625 -2.3125 L 8.1875 -2.3125 Z M 8.1875 0" transform="translate(116.885 57.953)"/></g></g></g><g fill="#FFF"><g><g><path d="M 12.171875 -4.265625 C 12.171875 -2.785156 11.6875 -1.648438 10.71875 -0.859375 C 9.757812 -0.078125 8.332031 0.3125 6.4375 0.3125 C 5.132812 0.3125 4.003906 0.0976562 3.046875 -0.328125 C 2.085938 -0.765625 1.304688 -1.46875 0.703125 -2.4375 L 3.015625 -4.203125 C 3.347656 -3.722656 3.664062 -3.359375 3.96875 -3.109375 C 4.28125 -2.867188 4.644531 -2.679688 5.0625 -2.546875 C 5.476562 -2.410156 5.960938 -2.34375 6.515625 -2.34375 C 7.328125 -2.34375 7.960938 -2.484375 8.421875 -2.765625 C 8.878906 -3.046875 9.109375 -3.472656 9.109375 -4.046875 C 9.109375 -4.378906 9.023438 -4.65625 8.859375 -4.875 C 8.703125 -5.09375 8.460938 -5.28125 8.140625 -5.4375 C 7.828125 -5.59375 7.273438 -5.773438 6.484375 -5.984375 C 5.722656 -6.191406 5.003906 -6.398438 4.328125 -6.609375 C 3.648438 -6.816406 3.0625 -7.085938 2.5625 -7.421875 C 2.070312 -7.753906 1.6875 -8.171875 1.40625 -8.671875 C 1.125 -9.179688 0.984375 -9.816406 0.984375 -10.578125 C 0.984375 -11.972656 1.453125 -13.0625 2.390625 -13.84375 C 3.335938 -14.632812 4.6875 -15.03125 6.4375 -15.03125 C 8.988281 -15.03125 10.789062 -14.15625 11.84375 -12.40625 L 9.5625 -10.625 C 9.15625 -11.25 8.695312 -11.695312 8.1875 -11.96875 C 7.6875 -12.238281 7.09375 -12.375 6.40625 -12.375 C 5.707031 -12.375 5.140625 -12.242188 4.703125 -11.984375 C 4.265625 -11.734375 4.046875 -11.34375 4.046875 -10.8125 C 4.046875 -10.332031 4.269531 -9.96875 4.71875 -9.71875 C 5.175781 -9.46875 5.972656 -9.210938 7.109375 -8.953125 C 7.734375 -8.785156 8.347656 -8.609375 8.953125 -8.421875 C 9.566406 -8.234375 10.113281 -7.972656 10.59375 -7.640625 C 11.070312 -7.304688 11.453125 -6.867188 11.734375 -6.328125 C 12.023438 -5.796875 12.171875 -5.109375 12.171875 -4.265625 Z M 12.171875 -4.265625" transform="translate(128.552 57.953)"/></g></g></g><g fill="#FFF"><g><g><path d="M 7.90625 -11.96875 L 7.90625 0 L 4.90625 0 L 4.90625 -11.96875 L 0.375 -11.96875 L 0.375 -14.71875 L 12.4375 -14.71875 L 12.4375 -11.96875 Z M 7.90625 -11.96875" transform="translate(144.014 57.953)"/></g></g></g><g fill="#FFF"><g><g><path d="M 0.28125 0 L 5.15625 -14.71875 L 9.0625 -14.71875 L 13.9375 0 L 10.875 0 L 9.890625 -2.984375 L 4.21875 -2.984375 L 3.265625 0 Z M 5.078125 -5.609375 L 9.046875 -5.609375 L 7.0625 -11.703125 Z M 5.078125 -5.609375" transform="translate(159.211 57.953)"/></g></g></g><g fill="#FFF"><g><g><path d="M 9.890625 0 L 4.53125 -10.515625 L 4.53125 0 L 1.59375 0 L 1.59375 -14.71875 L 5.484375 -14.71875 L 10.46875 -4.796875 L 10.46875 -14.71875 L 13.421875 -14.71875 L 13.421875 0 Z M 9.890625 0" transform="translate(175.822 57.953)"/></g></g></g><g fill="#FFF"><g><g><path d="M 4.59375 -11.96875 L 4.59375 -8.796875 L 10.015625 -8.796875 L 10.015625 -6.140625 L 4.59375 -6.140625 L 4.59375 0 L 1.59375 0 L 1.59375 -14.71875 L 11.0625 -14.71875 L 11.0625 -11.96875 Z M 4.59375 -11.96875" transform="translate(200.846 57.953)"/></g></g></g><g fill="#FFF"><g><g><path d="M 9.875 0 L 6.109375 -5.578125 L 4.59375 -5.578125 L 4.59375 0 L 1.59375 0 L 1.59375 -14.71875 L 6.9375 -14.71875 C 8.832031 -14.71875 10.21875 -14.375 11.09375 -13.6875 C 11.96875 -13.007812 12.40625 -11.894531 12.40625 -10.34375 C 12.40625 -9.09375 12.140625 -8.09375 11.609375 -7.34375 C 11.085938 -6.601562 10.34375 -6.128906 9.375 -5.921875 L 13.3125 0 Z M 9.375 -10.21875 C 9.375 -10.96875 9.179688 -11.46875 8.796875 -11.71875 C 8.421875 -11.976562 7.796875 -12.109375 6.921875 -12.109375 L 4.59375 -12.109375 L 4.59375 -8.1875 L 6.796875 -8.1875 C 7.472656 -8.1875 7.988281 -8.25 8.34375 -8.375 C 8.707031 -8.507812 8.96875 -8.707031 9.125 -8.96875 C 9.289062 -9.238281 9.375 -9.65625 9.375 -10.21875 Z M 9.375 -10.21875" transform="translate(214.98 57.953)"/></g></g></g><g fill="#FFF"><g><g><path d="M 1.59375 0 L 1.59375 -14.71875 L 11.15625 -14.71875 L 11.15625 -12.078125 L 4.59375 -12.078125 L 4.59375 -8.9375 L 10.125 -8.9375 L 10.125 -6.28125 L 4.59375 -6.28125 L 4.59375 -2.75 L 11.15625 -2.75 L 11.15625 0 Z M 1.59375 0" transform="translate(231.026 57.953)"/></g></g></g><g fill="#FFF"><g><g><path d="M 11.328125 -10.578125 C 10.953125 -11.191406 10.492188 -11.644531 9.953125 -11.9375 C 9.410156 -12.226562 8.734375 -12.375 7.921875 -12.375 C 6.578125 -12.375 5.601562 -11.941406 5 -11.078125 C 4.40625 -10.210938 4.109375 -8.929688 4.109375 -7.234375 C 4.109375 -5.546875 4.40625 -4.304688 5 -3.515625 C 5.59375 -2.734375 6.546875 -2.34375 7.859375 -2.34375 C 8.847656 -2.34375 9.765625 -2.550781 10.609375 -2.96875 L 10.609375 -5.25 L 7.734375 -5.25 L 7.734375 -7.90625 L 13.609375 -7.90625 L 13.609375 -1.390625 C 12.929688 -0.878906 12.085938 -0.46875 11.078125 -0.15625 C 10.066406 0.15625 9.023438 0.3125 7.953125 0.3125 C 5.660156 0.3125 3.929688 -0.285156 2.765625 -1.484375 C 1.597656 -2.679688 1.015625 -4.597656 1.015625 -7.234375 C 1.015625 -12.429688 3.300781 -15.03125 7.875 -15.03125 C 9.207031 -15.03125 10.367188 -14.804688 11.359375 -14.359375 C 12.359375 -13.910156 13.117188 -13.253906 13.640625 -12.390625 Z M 11.328125 -10.578125" transform="translate(245.638 57.953)"/></g></g></g><g fill="#FFF"><g><g><path d="M 13.59375 -7.359375 C 13.59375 -4.796875 13.050781 -2.875 11.96875 -1.59375 C 10.882812 -0.320312 9.3125 0.3125 7.25 0.3125 C 5.070312 0.3125 3.472656 -0.359375 2.453125 -1.703125 C 1.429688 -3.046875 0.921875 -4.929688 0.921875 -7.359375 C 0.921875 -9.796875 1.429688 -11.679688 2.453125 -13.015625 C 3.472656 -14.359375 5.070312 -15.03125 7.25 -15.03125 C 9.445312 -15.03125 11.050781 -14.359375 12.0625 -13.015625 C 13.082031 -11.679688 13.59375 -9.796875 13.59375 -7.359375 Z M 10.5 -7.359375 C 10.5 -9.097656 10.25 -10.367188 9.75 -11.171875 C 9.257812 -11.972656 8.425781 -12.375 7.25 -12.375 C 6.070312 -12.375 5.238281 -11.972656 4.75 -11.171875 C 4.257812 -10.367188 4.015625 -9.097656 4.015625 -7.359375 C 4.015625 -5.617188 4.265625 -4.347656 4.765625 -3.546875 C 5.265625 -2.742188 6.09375 -2.34375 7.25 -2.34375 C 8.425781 -2.34375 9.257812 -2.742188 9.75 -3.546875 C 10.25 -4.347656 10.5 -5.617188 10.5 -7.359375 Z M 10.5 -7.359375" transform="translate(263.078 57.953)"/></g></g></g><g fill="#FFF"><g><g><path d="M 9.890625 0 L 4.53125 -10.515625 L 4.53125 0 L 1.59375 0 L 1.59375 -14.71875 L 5.484375 -14.71875 L 10.46875 -4.796875 L 10.46875 -14.71875 L 13.421875 -14.71875 L 13.421875 0 Z M 9.890625 0" transform="translate(279.976 57.953)"/></g></g></g><g fill="#FFF"><g><g><path d="M 0.28125 0 L 5.15625 -14.71875 L 9.0625 -14.71875 L 13.9375 0 L 10.875 0 L 9.890625 -2.984375 L 4.21875 -2.984375 L 3.265625 0 Z M 5.078125 -5.609375 L 9.046875 -5.609375 L 7.0625 -11.703125 Z M 5.078125 -5.609375" transform="translate(297.373 57.953)"/></g></g></g><g fill="#FFF"><g><g><path d="M 0.71875 -2.828125 L 0.71875 -4.453125 L 6.609375 -7.28125 L 6.609375 -5.5625 L 2.34375 -3.65625 L 2.34375 -3.625 L 6.609375 -1.71875 L 6.609375 0 Z M 0.71875 -2.828125" transform="translate(119.867 76.632)"/></g></g></g><g fill="#FFF"><g><g><path d="M 1.15625 -10.078125 L 7.453125 -10.078125 L 9.046875 -8.484375 L 9.046875 -1.59375 L 7.453125 0 L 1.15625 0 Z M 6.15625 -1.859375 L 6.75 -2.453125 L 6.75 -7.625 L 6.15625 -8.21875 L 3.453125 -8.21875 L 3.453125 -1.859375 Z M 6.15625 -1.859375" transform="translate(138.952 76.632)"/></g></g></g><g fill="#FFF"><g><g><path d="M 0.796875 -1.140625 L 0.796875 -6.140625 L 2.015625 -7.34375 L 5.765625 -7.34375 L 6.984375 -6.140625 L 6.984375 -2.9375 L 2.828125 -2.9375 L 2.828125 -1.765625 L 3.265625 -1.328125 L 5.109375 -1.328125 L 5.828125 -2.09375 L 7.15625 -1.09375 L 6.046875 0.078125 L 2.015625 0.078125 Z M 4.96875 -4.234375 L 4.96875 -5.515625 L 4.53125 -5.9375 L 3.265625 -5.9375 L 2.828125 -5.515625 L 2.828125 -4.234375 Z M 4.453125 -10.421875 L 6.953125 -10.421875 L 4.625 -8.546875 L 2.921875 -8.546875 Z M 4.453125 -10.421875" transform="translate(153.366 76.632)"/></g></g></g><g fill="#FFF"><g><g><path d="M 0.140625 -7.28125 L 2.25 -7.28125 L 3.578125 -1.875 L 3.640625 -1.875 L 5.046875 -7.28125 L 6.828125 -7.28125 L 4.8125 0 L 2.125 0 Z M 0.140625 -7.28125" transform="translate(165.605 76.632)"/></g></g></g><g fill="#FFF"><g><g><path d="M 0.796875 -1.140625 L 0.796875 -6.140625 L 2.015625 -7.34375 L 5.765625 -7.34375 L 6.984375 -6.140625 L 6.984375 -2.9375 L 2.828125 -2.9375 L 2.828125 -1.765625 L 3.265625 -1.328125 L 5.109375 -1.328125 L 5.828125 -2.09375 L 7.15625 -1.09375 L 6.046875 0.078125 L 2.015625 0.078125 Z M 4.96875 -4.234375 L 4.96875 -5.515625 L 4.53125 -5.9375 L 3.265625 -5.9375 L 2.828125 -5.515625 L 2.828125 -4.234375 Z M 4.96875 -4.234375" transform="translate(176.93 76.632)"/></g></g></g><g fill="#FFF"><g><g><path d="M 0.875 -10.0625 L 2.90625 -10.0625 L 2.90625 0 L 0.875 0 Z M 0.875 -10.0625" transform="translate(189.17 76.632)"/></g></g></g><g fill="#FFF"><g><g><path d="M 0.796875 -1.140625 L 0.796875 -6.140625 L 2.015625 -7.34375 L 6.046875 -7.34375 L 7.265625 -6.140625 L 7.265625 -1.125 L 6.046875 0.078125 L 2.015625 0.078125 Z M 4.8125 -1.484375 L 5.234375 -1.90625 L 5.234375 -5.375 L 4.8125 -5.796875 L 3.25 -5.796875 L 2.828125 -5.375 L 2.828125 -1.90625 L 3.25 -1.484375 Z M 4.8125 -1.484375" transform="translate(197.292 76.632)"/></g></g></g><g fill="#FFF"><g><g><path d="M 0.875 -7.28125 L 2.34375 -7.28125 L 2.828125 -6.328125 L 2.90625 -6.328125 L 4.078125 -7.34375 L 5.9375 -7.34375 L 7.15625 -6.140625 L 7.15625 -1.140625 L 5.9375 0.078125 L 3.921875 0.078125 L 2.90625 -0.953125 L 2.90625 2.78125 L 0.875 2.78125 Z M 4.703125 -1.484375 L 5.125 -1.90625 L 5.125 -5.375 L 4.703125 -5.796875 L 4.078125 -5.796875 L 2.90625 -4.9375 L 2.90625 -2.328125 L 3.859375 -1.484375 Z M 4.703125 -1.484375" transform="translate(209.705 76.632)"/></g></g></g><g fill="#FFF"><g><g><path d="M 0.875 -7.28125 L 2.34375 -7.28125 L 2.828125 -6.328125 L 2.90625 -6.328125 L 4.078125 -7.34375 L 5.9375 -7.34375 L 7.15625 -6.140625 L 7.15625 -1.140625 L 5.9375 0.078125 L 3.921875 0.078125 L 2.90625 -0.953125 L 2.90625 2.78125 L 0.875 2.78125 Z M 4.703125 -1.484375 L 5.125 -1.90625 L 5.125 -5.375 L 4.703125 -5.796875 L 4.078125 -5.796875 L 2.90625 -4.9375 L 2.90625 -2.328125 L 3.859375 -1.484375 Z M 4.703125 -1.484375" transform="translate(222.002 76.632)"/></g></g></g><g fill="#FFF"><g><g><path d="M 0.796875 -1.140625 L 0.796875 -6.140625 L 2.015625 -7.34375 L 5.765625 -7.34375 L 6.984375 -6.140625 L 6.984375 -2.9375 L 2.828125 -2.9375 L 2.828125 -1.765625 L 3.265625 -1.328125 L 5.109375 -1.328125 L 5.828125 -2.09375 L 7.15625 -1.09375 L 6.046875 0.078125 L 2.015625 0.078125 Z M 4.96875 -4.234375 L 4.96875 -5.515625 L 4.53125 -5.9375 L 3.265625 -5.9375 L 2.828125 -5.515625 L 2.828125 -4.234375 Z M 4.96875 -4.234375" transform="translate(234.299 76.632)"/></g></g></g><g fill="#FFF"><g><g><path d="M 0.875 -1.140625 L 0.875 -7.28125 L 2.90625 -7.28125 L 2.90625 -1.90625 L 3.328125 -1.484375 L 3.9375 -1.484375 L 5.125 -2.328125 L 5.125 -7.28125 L 7.15625 -7.28125 L 7.15625 0 L 5.671875 0 L 5.1875 -0.953125 L 5.125 -0.953125 L 3.9375 0.078125 L 2.09375 0.078125 Z M 0.875 -1.140625" transform="translate(246.538 76.632)"/></g></g></g><g fill="#FFF"><g><g><path d="M 0.875 -7.28125 L 2.34375 -7.28125 L 2.828125 -6.328125 L 2.90625 -6.328125 L 3.984375 -7.28125 L 5.46875 -7.28125 L 5.46875 -5.453125 L 3.90625 -5.453125 L 2.90625 -4.640625 L 2.90625 0 L 0.875 0 Z M 0.875 -7.28125" transform="translate(258.908 76.632)"/></g></g></g><g fill="#FFF"><g><g><path d="M 0.21875 -7.28125 L 2.25 -7.28125 L 3.15625 -2 L 3.234375 -2 L 4.296875 -7.28125 L 6.640625 -7.28125 L 7.6875 -2 L 7.75 -2 L 8.75 -7.28125 L 10.453125 -7.28125 L 8.96875 0 L 6.3125 0 L 5.375 -4.609375 L 5.328125 -4.609375 L 4.40625 0 L 1.71875 0 Z M 0.21875 -7.28125" transform="translate(276.413 76.632)"/></g></g></g><g fill="#FFF"><g><g><path d="M 0.796875 -1.140625 L 0.796875 -6.140625 L 2.015625 -7.34375 L 5.765625 -7.34375 L 6.984375 -6.140625 L 6.984375 -2.9375 L 2.828125 -2.9375 L 2.828125 -1.765625 L 3.265625 -1.328125 L 5.109375 -1.328125 L 5.828125 -2.09375 L 7.15625 -1.09375 L 6.046875 0.078125 L 2.015625 0.078125 Z M 4.96875 -4.234375 L 4.96875 -5.515625 L 4.53125 -5.9375 L 3.265625 -5.9375 L 2.828125 -5.515625 L 2.828125 -4.234375 Z M 4.96875 -4.234375" transform="translate(291.435 76.632)"/></g></g></g><g fill="#FFF"><g><g><path d="M 2.90625 -0.953125 L 2.828125 -0.953125 L 2.34375 0 L 0.875 0 L 0.875 -10.0625 L 2.90625 -10.0625 L 2.90625 -6.328125 L 3.921875 -7.34375 L 5.9375 -7.34375 L 7.15625 -6.140625 L 7.15625 -1.140625 L 5.9375 0.078125 L 4.078125 0.078125 Z M 4.703125 -1.484375 L 5.125 -1.90625 L 5.125 -5.375 L 4.703125 -5.796875 L 3.859375 -5.796875 L 2.90625 -4.9375 L 2.90625 -2.328125 L 4.078125 -1.484375 Z M 4.703125 -1.484375" transform="translate(303.675 76.632)"/></g></g></g><g fill="#FFF"><g><g><path d="M 0.796875 -1.140625 L 0.796875 -6.140625 L 2.015625 -7.34375 L 5.765625 -7.34375 L 6.984375 -6.140625 L 6.984375 -2.9375 L 2.828125 -2.9375 L 2.828125 -1.765625 L 3.265625 -1.328125 L 5.109375 -1.328125 L 5.828125 -2.09375 L 7.15625 -1.09375 L 6.046875 0.078125 L 2.015625 0.078125 Z M 4.96875 -4.234375 L 4.96875 -5.515625 L 4.53125 -5.9375 L 3.265625 -5.9375 L 2.828125 -5.515625 L 2.828125 -4.234375 Z M 4.453125 -10.421875 L 6.953125 -10.421875 L 4.625 -8.546875 L 2.921875 -8.546875 Z M 4.453125 -10.421875" transform="translate(162.534 94.632)"/></g></g></g><g fill="#FFF"><g><g><path d="M 0.953125 -1.21875 L 0.953125 -5.828125 L 0.078125 -5.828125 L 0.078125 -7.28125 L 0.953125 -7.28125 L 0.953125 -8.09375 L 2.203125 -9.15625 L 2.984375 -9.15625 L 2.984375 -7.28125 L 4.390625 -7.28125 L 4.390625 -5.828125 L 2.984375 -5.828125 L 2.984375 -2.25 L 3.40625 -1.828125 L 4.65625 -1.828125 L 4.65625 0 L 2.171875 0 Z M 0.953125 -1.21875" transform="translate(174.774 94.632)"/></g></g></g><g fill="#FFF"><g><g><path d="M 0.875 -1.140625 L 0.875 -7.28125 L 2.90625 -7.28125 L 2.90625 -1.90625 L 3.328125 -1.484375 L 3.9375 -1.484375 L 5.125 -2.328125 L 5.125 -7.28125 L 7.15625 -7.28125 L 7.15625 0 L 5.671875 0 L 5.1875 -0.953125 L 5.125 -0.953125 L 3.9375 0.078125 L 2.09375 0.078125 Z M 0.875 -1.140625" transform="translate(184.215 94.632)"/></g></g></g><g fill="#FFF"><g><g><path d="M 0.796875 -1.140625 L 0.796875 -6.140625 L 2.015625 -7.34375 L 4.015625 -7.34375 L 5.046875 -6.328125 L 5.046875 -10.0625 L 7.078125 -10.0625 L 7.078125 0 L 5.59375 0 L 5.125 -0.953125 L 5.046875 -0.953125 L 3.875 0.078125 L 2.015625 0.078125 Z M 3.875 -1.484375 L 5.046875 -2.328125 L 5.046875 -4.9375 L 4.09375 -5.796875 L 3.25 -5.796875 L 2.828125 -5.375 L 2.828125 -1.90625 L 3.25 -1.484375 Z M 3.875 -1.484375" transform="translate(196.584 94.632)"/></g></g></g><g fill="#FFF"><g><g><path d="M 0.875 -7.28125 L 2.90625 -7.28125 L 2.90625 0 L 0.875 0 Z M 0.875 -10.078125 L 2.90625 -10.078125 L 2.90625 -8.390625 L 0.875 -8.390625 Z M 0.875 -10.078125" transform="translate(208.882 94.632)"/></g></g></g><g fill="#FFF"><g><g><path d="M 0.578125 -1.140625 L 0.578125 -3.21875 L 1.796875 -4.4375 L 4.828125 -4.4375 L 4.828125 -5.515625 L 4.390625 -5.9375 L 2.8125 -5.9375 L 2.015625 -5.3125 L 0.84375 -6.40625 L 1.84375 -7.34375 L 5.640625 -7.34375 L 6.859375 -6.140625 L 6.859375 0 L 5.359375 0 L 4.890625 -0.953125 L 4.828125 -0.953125 L 3.640625 0.078125 L 1.796875 0.078125 Z M 3.625 -1.328125 L 4.828125 -2.265625 L 4.828125 -3.078125 L 3.03125 -3.078125 L 2.609375 -2.65625 L 2.609375 -1.765625 L 3.046875 -1.328125 Z M 3.625 -1.328125" transform="translate(217.004 94.632)"/></g></g></g><g fill="#FFF"><g><g><path d="M 0.875 -7.28125 L 2.34375 -7.28125 L 2.828125 -6.328125 L 2.90625 -6.328125 L 4.078125 -7.34375 L 5.9375 -7.34375 L 7.15625 -6.140625 L 7.15625 0 L 5.125 0 L 5.125 -5.375 L 4.703125 -5.796875 L 4.078125 -5.796875 L 2.90625 -4.9375 L 2.90625 0 L 0.875 0 Z M 0.875 -7.28125" transform="translate(229.083 94.632)"/></g></g></g><g fill="#FFF"><g><g><path d="M 0.953125 -1.21875 L 0.953125 -5.828125 L 0.078125 -5.828125 L 0.078125 -7.28125 L 0.953125 -7.28125 L 0.953125 -8.09375 L 2.203125 -9.15625 L 2.984375 -9.15625 L 2.984375 -7.28125 L 4.390625 -7.28125 L 4.390625 -5.828125 L 2.984375 -5.828125 L 2.984375 -2.25 L 3.40625 -1.828125 L 4.65625 -1.828125 L 4.65625 0 L 2.171875 0 Z M 0.953125 -1.21875" transform="translate(241.453 94.632)"/></g></g></g><g fill="#FFF"><g><g><path d="M 4.5 -10.875 L 6.359375 -10.875 L 1.859375 2.78125 L 0 2.78125 Z M 4.5 -10.875" transform="translate(258.292 94.632)"/></g></g></g><g fill="#FFF"><g><g><path d="M 0.71875 -1.71875 L 4.984375 -3.625 L 4.984375 -3.65625 L 0.71875 -5.5625 L 0.71875 -7.28125 L 6.609375 -4.453125 L 6.609375 -2.828125 L 0.71875 0 Z M 0.71875 -1.71875" transform="translate(269.009 94.632)"/></g></g></g></svg>