<svg xmlns="http://www.w3.org/2000/svg" xmlns:xlink="http://www.w3.org/1999/xlink" width="375" viewBox="0 0 375 375" height="375" version="1.0"><defs><clipPath id="c"><path d="M0 0H317V294H0z"/></clipPath><clipPath id="d"><path d="M 23 217 L 93 217 L 93 317 L 23 317 Z M 23 217"/></clipPath><clipPath id="e"><path d="M 42.402344 209.796875 L 106.933594 236.265625 L 72.78125 319.535156 L 8.25 293.066406 Z M 42.402344 209.796875"/></clipPath><clipPath id="f"><path d="M 42.402344 209.796875 L 106.933594 236.265625 L 72.78125 319.535156 L 8.25 293.066406 Z M 42.402344 209.796875"/></clipPath><clipPath id="g"><path d="M 27 221 L 89 221 L 89 311 L 27 311 Z M 27 221"/></clipPath><clipPath id="h"><path d="M 42.402344 209.796875 L 106.933594 236.265625 L 72.78125 319.535156 L 8.25 293.066406 Z M 42.402344 209.796875"/></clipPath><clipPath id="i"><path d="M 42.402344 209.796875 L 106.933594 236.265625 L 72.78125 319.535156 L 8.25 293.066406 Z M 42.402344 209.796875"/></clipPath><filter x="0%" y="0%" width="100%" xlink:type="simple" xlink:actuate="onLoad" height="100%" id="a" xlink:show="other"><feColorMatrix values="0 0 0 0 1 0 0 0 0 1 0 0 0 0 1 0 0 0 1 0" color-interpolation-filters="sRGB"/></filter><mask id="b"><g filter="url(#a)"><path fill-opacity=".749" d="M-37.5 -37.5H412.5V412.5H-37.5z"/></g></mask></defs><g mask="url(#b)"><g><g clip-path="url(#c)" transform="translate(8 37)"><path fill="#F19820" d="M 30.4375 99.023438 C 30.4375 99.023438 0.28125 158.707031 18.164062 188.65625 C 36.046875 218.605469 54.667969 274.585938 103.871094 283.792969 C 153.074219 293 235.925781 266.648438 261.742188 240.617188 C 287.5625 214.582031 315.8125 136.800781 261.003906 72.777344 C 206.191406 8.753906 129.054688 0.5 30.4375 99.023438 Z M 30.4375 99.023438"/></g></g></g><g clip-path="url(#d)"><g clip-path="url(#e)"><g clip-path="url(#f)"><path fill="#223E5C" d="M 61.222656 217.511719 L 68.949219 220.679688 L 67.46875 224.285156 L 71.265625 225.84375 L 65.039062 241.027344 L 72.632812 244.140625 L 71.074219 247.9375 L 82.464844 252.609375 L 80.90625 256.40625 L 88.5 259.519531 L 86.941406 263.316406 L 90.738281 264.875 L 89.179688 268.667969 L 92.976562 270.226562 L 82.101562 296.746094 L 78.304688 295.1875 L 73.632812 306.574219 L 69.835938 305.019531 L 65.164062 316.40625 L 27.066406 300.78125 L 31.738281 289.390625 L 27.941406 287.835938 L 31.054688 280.242188 L 27.261719 278.683594 L 30.375 271.09375 L 26.578125 269.535156 L 29.691406 261.941406 L 25.894531 260.386719 L 27.453125 256.589844 L 23.847656 255.109375 L 28.492188 243.777344 L 39.828125 248.425781 L 38.269531 252.222656 L 41.933594 253.726562 L 55.945312 219.558594 L 59.742188 221.117188 Z M 61.222656 217.511719"/></g></g></g><g clip-path="url(#g)"><g clip-path="url(#h)"><g clip-path="url(#i)"><path fill="#223E5C" d="M 59.933594 221.195312 L 39.691406 270.546875 L 35.648438 268.886719 L 40.320312 257.5 L 36.523438 255.945312 L 38.082031 252.148438 L 30.734375 249.132812 L 27.640625 256.667969 L 31.4375 258.226562 L 29.882812 262.023438 L 33.675781 263.578125 L 30.5625 271.171875 L 34.359375 272.730469 L 31.246094 280.320312 L 35.042969 281.878906 L 31.929688 289.472656 L 35.722656 291.027344 L 32.609375 298.621094 L 62.734375 310.976562 L 65.847656 303.386719 L 69.644531 304.941406 L 74.316406 293.554688 L 78.113281 295.109375 L 88.988281 268.59375 L 85.195312 267.035156 L 86.75 263.238281 L 83.199219 261.78125 L 78.527344 273.171875 L 74.488281 271.511719 L 80.714844 256.328125 L 73.367188 253.316406 L 68.695312 264.703125 L 64.65625 263.046875 L 70.882812 247.863281 L 63.535156 244.847656 L 57.308594 260.03125 L 53.265625 258.375 L 67.28125 224.207031 Z M 59.933594 221.195312"/><path fill="#FFF" d="M 59.933594 221.195312 L 67.28125 224.207031 L 53.265625 258.375 L 57.308594 260.03125 L 63.535156 244.847656 L 70.882812 247.863281 L 64.65625 263.046875 L 68.695312 264.703125 L 73.367188 253.316406 L 80.714844 256.328125 L 74.488281 271.515625 L 78.527344 273.171875 L 83.199219 261.78125 L 86.75 263.238281 L 85.195312 267.035156 L 88.988281 268.59375 L 78.113281 295.109375 L 74.316406 293.554688 L 69.644531 304.941406 L 65.847656 303.386719 L 62.734375 310.976562 L 32.609375 298.621094 L 35.722656 291.027344 L 31.929688 289.472656 L 35.042969 281.878906 L 31.246094 280.320312 L 34.359375 272.730469 L 30.5625 271.171875 L 33.675781 263.578125 L 29.882812 262.023438 L 31.4375 258.226562 L 27.640625 256.667969 L 30.734375 249.132812 L 38.082031 252.148438 L 36.523438 255.945312 L 40.320312 257.5 L 35.648438 268.890625 L 39.691406 270.546875 Z M 59.933594 221.195312"/></g></g></g><g fill="#223E5C"><g><g><path d="M 22.859375 -34.640625 L 22.859375 0 L 14.1875 0 L 14.1875 -34.640625 L 1.078125 -34.640625 L 1.078125 -42.578125 L 35.953125 -42.578125 L 35.953125 -34.640625 Z M 22.859375 -34.640625" transform="translate(21.04 113.615)"/></g></g></g><g fill="#223E5C"><g><g><path d="M 28.546875 0 L 17.6875 -16.125 L 13.296875 -16.125 L 13.296875 0 L 4.609375 0 L 4.609375 -42.578125 L 20.09375 -42.578125 C 25.5625 -42.578125 29.5625 -41.59375 32.09375 -39.625 C 34.632812 -37.65625 35.90625 -34.425781 35.90625 -29.9375 C 35.90625 -26.300781 35.140625 -23.40625 33.609375 -21.25 C 32.078125 -19.101562 29.90625 -17.734375 27.09375 -17.140625 L 38.484375 0 Z M 27.09375 -29.5625 C 27.09375 -31.738281 26.546875 -33.191406 25.453125 -33.921875 C 24.359375 -34.660156 22.550781 -35.03125 20.03125 -35.03125 L 13.296875 -35.03125 L 13.296875 -23.6875 L 19.65625 -23.6875 C 21.601562 -23.6875 23.097656 -23.867188 24.140625 -24.234375 C 25.191406 -24.609375 25.945312 -25.179688 26.40625 -25.953125 C 26.863281 -26.734375 27.09375 -27.9375 27.09375 -29.5625 Z M 27.09375 -29.5625" transform="translate(65.009 113.615)"/></g></g></g><g fill="#223E5C"><g><g><path d="M 23.6875 0 L 3.140625 0 L 3.140625 -6.671875 L 9.078125 -6.671875 L 9.078125 -35.90625 L 3.140625 -35.90625 L 3.140625 -42.578125 L 23.6875 -42.578125 L 23.6875 -35.90625 L 17.78125 -35.90625 L 17.78125 -6.671875 L 23.6875 -6.671875 Z M 23.6875 0" transform="translate(111.438 113.615)"/></g></g></g><g fill="#223E5C"><g><g><path d="M 35.21875 -12.328125 C 35.21875 -8.066406 33.816406 -4.796875 31.015625 -2.515625 C 28.222656 -0.242188 24.097656 0.890625 18.640625 0.890625 C 14.867188 0.890625 11.59375 0.265625 8.8125 -0.984375 C 6.03125 -2.234375 3.769531 -4.253906 2.03125 -7.046875 L 8.703125 -12.15625 C 9.691406 -10.757812 10.625 -9.710938 11.5 -9.015625 C 12.382812 -8.316406 13.429688 -7.769531 14.640625 -7.375 C 15.847656 -6.988281 17.242188 -6.796875 18.828125 -6.796875 C 21.179688 -6.796875 23.019531 -7.203125 24.34375 -8.015625 C 25.664062 -8.828125 26.328125 -10.0625 26.328125 -11.71875 C 26.328125 -12.664062 26.097656 -13.457031 25.640625 -14.09375 C 25.179688 -14.726562 24.488281 -15.273438 23.5625 -15.734375 C 22.632812 -16.191406 21.035156 -16.71875 18.765625 -17.3125 C 16.546875 -17.914062 14.457031 -18.519531 12.5 -19.125 C 10.539062 -19.726562 8.847656 -20.507812 7.421875 -21.46875 C 6.003906 -22.4375 4.882812 -23.644531 4.0625 -25.09375 C 3.238281 -26.550781 2.828125 -28.390625 2.828125 -30.609375 C 2.828125 -34.648438 4.191406 -37.800781 6.921875 -40.0625 C 9.648438 -42.332031 13.554688 -43.46875 18.640625 -43.46875 C 26.003906 -43.46875 31.210938 -40.945312 34.265625 -35.90625 L 27.65625 -30.734375 C 26.488281 -32.535156 25.175781 -33.828125 23.71875 -34.609375 C 22.257812 -35.390625 20.523438 -35.78125 18.515625 -35.78125 C 16.503906 -35.78125 14.867188 -35.414062 13.609375 -34.6875 C 12.347656 -33.957031 11.71875 -32.8125 11.71875 -31.25 C 11.71875 -29.875 12.375 -28.820312 13.6875 -28.09375 C 15 -27.375 17.285156 -26.644531 20.546875 -25.90625 C 22.347656 -25.425781 24.128906 -24.914062 25.890625 -24.375 C 27.660156 -23.832031 29.238281 -23.078125 30.625 -22.109375 C 32.007812 -21.148438 33.117188 -19.890625 33.953125 -18.328125 C 34.796875 -16.773438 35.21875 -14.773438 35.21875 -12.328125 Z M 35.21875 -12.328125" transform="translate(145.193 113.615)"/></g></g></g><g fill="#223E5C"><g><g><path d="M 22.859375 -34.640625 L 22.859375 0 L 14.1875 0 L 14.1875 -34.640625 L 1.078125 -34.640625 L 1.078125 -42.578125 L 35.953125 -42.578125 L 35.953125 -34.640625 Z M 22.859375 -34.640625" transform="translate(189.93 113.615)"/></g></g></g><g fill="#223E5C"><g><g><path d="M 0.828125 0 L 14.921875 -42.578125 L 26.203125 -42.578125 L 40.328125 0 L 31.4375 0 L 28.609375 -8.640625 L 12.21875 -8.640625 L 9.4375 0 Z M 14.671875 -16.25 L 26.140625 -16.25 L 20.421875 -33.84375 Z M 14.671875 -16.25" transform="translate(233.899 113.615)"/></g></g></g><g fill="#223E5C"><g><g><path d="M 28.609375 0 L 13.109375 -30.421875 L 13.109375 0 L 4.609375 0 L 4.609375 -42.578125 L 15.875 -42.578125 L 30.296875 -13.875 L 30.296875 -42.578125 L 38.828125 -42.578125 L 38.828125 0 Z M 28.609375 0" transform="translate(281.958 113.615)"/></g></g></g><g fill="#223E5C"><g><g><path d="M 13.296875 -34.640625 L 13.296875 -25.4375 L 28.984375 -25.4375 L 28.984375 -17.78125 L 13.296875 -17.78125 L 13.296875 0 L 4.609375 0 L 4.609375 -42.578125 L 32 -42.578125 L 32 -34.640625 Z M 13.296875 -34.640625" transform="translate(21.04 187.865)"/></g></g></g><g fill="#223E5C"><g><g><path d="M 28.546875 0 L 17.6875 -16.125 L 13.296875 -16.125 L 13.296875 0 L 4.609375 0 L 4.609375 -42.578125 L 20.09375 -42.578125 C 25.5625 -42.578125 29.5625 -41.59375 32.09375 -39.625 C 34.632812 -37.65625 35.90625 -34.425781 35.90625 -29.9375 C 35.90625 -26.300781 35.140625 -23.40625 33.609375 -21.25 C 32.078125 -19.101562 29.90625 -17.734375 27.09375 -17.140625 L 38.484375 0 Z M 27.09375 -29.5625 C 27.09375 -31.738281 26.546875 -33.191406 25.453125 -33.921875 C 24.359375 -34.660156 22.550781 -35.03125 20.03125 -35.03125 L 13.296875 -35.03125 L 13.296875 -23.6875 L 19.65625 -23.6875 C 21.601562 -23.6875 23.097656 -23.867188 24.140625 -24.234375 C 25.191406 -24.609375 25.945312 -25.179688 26.40625 -25.953125 C 26.863281 -26.734375 27.09375 -27.9375 27.09375 -29.5625 Z M 27.09375 -29.5625" transform="translate(61.933 187.865)"/></g></g></g><g fill="#223E5C"><g><g><path d="M 4.609375 0 L 4.609375 -42.578125 L 32.265625 -42.578125 L 32.265625 -34.921875 L 13.296875 -34.921875 L 13.296875 -25.84375 L 29.28125 -25.84375 L 29.28125 -18.15625 L 13.296875 -18.15625 L 13.296875 -7.9375 L 32.265625 -7.9375 L 32.265625 0 Z M 4.609375 0" transform="translate(108.362 187.865)"/></g></g></g><g fill="#223E5C"><g><g><path d="M 32.765625 -30.609375 C 31.671875 -32.367188 30.34375 -33.671875 28.78125 -34.515625 C 27.226562 -35.359375 25.273438 -35.78125 22.921875 -35.78125 C 19.046875 -35.78125 16.238281 -34.53125 14.5 -32.03125 C 12.769531 -29.539062 11.90625 -25.835938 11.90625 -20.921875 C 11.90625 -16.035156 12.757812 -12.457031 14.46875 -10.1875 C 16.1875 -7.925781 18.941406 -6.796875 22.734375 -6.796875 C 25.609375 -6.796875 28.253906 -7.390625 30.671875 -8.578125 L 30.671875 -15.203125 L 22.359375 -15.203125 L 22.359375 -22.859375 L 39.375 -22.859375 L 39.375 -4.03125 C 37.40625 -2.550781 34.957031 -1.359375 32.03125 -0.453125 C 29.113281 0.441406 26.109375 0.890625 23.015625 0.890625 C 16.367188 0.890625 11.363281 -0.835938 8 -4.296875 C 4.632812 -7.765625 2.953125 -13.304688 2.953125 -20.921875 C 2.953125 -35.953125 9.566406 -43.46875 22.796875 -43.46875 C 26.648438 -43.46875 30.007812 -42.820312 32.875 -41.53125 C 35.75 -40.238281 37.9375 -38.34375 39.4375 -35.84375 Z M 32.765625 -30.609375" transform="translate(150.638 187.865)"/></g></g></g><g fill="#223E5C"><g><g><path d="M 39.3125 -21.28125 C 39.3125 -13.882812 37.75 -8.335938 34.625 -4.640625 C 31.5 -0.953125 26.953125 0.890625 20.984375 0.890625 C 14.679688 0.890625 10.046875 -1.050781 7.078125 -4.9375 C 4.117188 -8.820312 2.640625 -14.269531 2.640625 -21.28125 C 2.640625 -28.34375 4.117188 -33.804688 7.078125 -37.671875 C 10.046875 -41.535156 14.679688 -43.46875 20.984375 -43.46875 C 27.316406 -43.46875 31.953125 -41.535156 34.890625 -37.671875 C 37.835938 -33.804688 39.3125 -28.34375 39.3125 -21.28125 Z M 30.359375 -21.28125 C 30.359375 -26.332031 29.644531 -30.007812 28.21875 -32.3125 C 26.800781 -34.625 24.390625 -35.78125 20.984375 -35.78125 C 17.578125 -35.78125 15.160156 -34.625 13.734375 -32.3125 C 12.304688 -30.007812 11.59375 -26.332031 11.59375 -21.28125 C 11.59375 -16.238281 12.316406 -12.5625 13.765625 -10.25 C 15.210938 -7.945312 17.617188 -6.796875 20.984375 -6.796875 C 24.390625 -6.796875 26.800781 -7.945312 28.21875 -10.25 C 29.644531 -12.5625 30.359375 -16.238281 30.359375 -21.28125 Z M 30.359375 -21.28125" transform="translate(201.097 187.865)"/></g></g></g><g fill="#223E5C"><g><g><path d="M 28.609375 0 L 13.109375 -30.421875 L 13.109375 0 L 4.609375 0 L 4.609375 -42.578125 L 15.875 -42.578125 L 30.296875 -13.875 L 30.296875 -42.578125 L 38.828125 -42.578125 L 38.828125 0 Z M 28.609375 0" transform="translate(249.987 187.865)"/></g></g></g><g fill="#223E5C"><g><g><path d="M 0.828125 0 L 14.921875 -42.578125 L 26.203125 -42.578125 L 40.328125 0 L 31.4375 0 L 28.609375 -8.640625 L 12.21875 -8.640625 L 9.4375 0 Z M 14.671875 -16.25 L 26.140625 -16.25 L 20.421875 -33.84375 Z M 14.671875 -16.25" transform="translate(300.323 187.865)"/></g></g></g><g fill="#223E5C"><g><g><path d="M 1.21875 -4.71875 L 1.21875 -7.4375 L 11.046875 -12.171875 L 11.046875 -9.3125 L 3.921875 -6.109375 L 3.921875 -6.0625 L 11.046875 -2.859375 L 11.046875 0 Z M 1.21875 -4.71875" transform="translate(110.7 238.823)"/></g></g></g><g fill="#223E5C"><g><g><path d="M 1.9375 -16.84375 L 12.453125 -16.84375 L 15.125 -14.171875 L 15.125 -2.671875 L 12.453125 0 L 1.9375 0 Z M 10.296875 -3.109375 L 11.296875 -4.09375 L 11.296875 -12.75 L 10.296875 -13.734375 L 5.765625 -13.734375 L 5.765625 -3.109375 Z M 10.296875 -3.109375" transform="translate(142.596 238.823)"/></g></g></g><g fill="#223E5C"><g><g><path d="M 1.328125 -1.921875 L 1.328125 -10.25 L 3.375 -12.28125 L 9.640625 -12.28125 L 11.6875 -10.25 L 11.6875 -4.921875 L 4.71875 -4.921875 L 4.71875 -2.953125 L 5.453125 -2.234375 L 8.53125 -2.234375 L 9.734375 -3.484375 L 11.96875 -1.8125 L 10.109375 0.125 L 3.375 0.125 Z M 8.3125 -7.078125 L 8.3125 -9.203125 L 7.578125 -9.9375 L 5.453125 -9.9375 L 4.71875 -9.203125 L 4.71875 -7.078125 Z M 7.4375 -17.421875 L 11.609375 -17.421875 L 7.734375 -14.28125 L 4.890625 -14.28125 Z M 7.4375 -17.421875" transform="translate(166.687 238.823)"/></g></g></g><g fill="#223E5C"><g><g><path d="M 0.25 -12.171875 L 3.75 -12.171875 L 5.984375 -3.125 L 6.078125 -3.125 L 8.4375 -12.171875 L 11.421875 -12.171875 L 8.046875 0 L 3.5625 0 Z M 0.25 -12.171875" transform="translate(187.143 238.823)"/></g></g></g><g fill="#223E5C"><g><g><path d="M 1.328125 -1.921875 L 1.328125 -10.25 L 3.375 -12.28125 L 9.640625 -12.28125 L 11.6875 -10.25 L 11.6875 -4.921875 L 4.71875 -4.921875 L 4.71875 -2.953125 L 5.453125 -2.234375 L 8.53125 -2.234375 L 9.734375 -3.484375 L 11.96875 -1.8125 L 10.109375 0.125 L 3.375 0.125 Z M 8.3125 -7.078125 L 8.3125 -9.203125 L 7.578125 -9.9375 L 5.453125 -9.9375 L 4.71875 -9.203125 L 4.71875 -7.078125 Z M 8.3125 -7.078125" transform="translate(206.072 238.823)"/></g></g></g><g fill="#223E5C"><g><g><path d="M 1.453125 -16.8125 L 4.84375 -16.8125 L 4.84375 0 L 1.453125 0 Z M 1.453125 -16.8125" transform="translate(226.528 238.823)"/></g></g></g><g fill="#223E5C"><g><g><path d="M 1.328125 -1.921875 L 1.328125 -10.25 L 3.375 -12.28125 L 10.109375 -12.28125 L 12.140625 -10.25 L 12.140625 -1.890625 L 10.109375 0.125 L 3.375 0.125 Z M 8.046875 -2.46875 L 8.75 -3.171875 L 8.75 -8.984375 L 8.046875 -9.6875 L 5.421875 -9.6875 L 4.71875 -8.984375 L 4.71875 -3.171875 L 5.421875 -2.46875 Z M 8.046875 -2.46875" transform="translate(240.102 238.823)"/></g></g></g><g fill="#223E5C"><g><g><path d="M 1.453125 -12.171875 L 3.921875 -12.171875 L 4.71875 -10.5625 L 4.84375 -10.5625 L 6.8125 -12.28125 L 9.90625 -12.28125 L 11.953125 -10.25 L 11.953125 -1.921875 L 9.90625 0.125 L 6.5625 0.125 L 4.84375 -1.59375 L 4.84375 4.65625 L 1.453125 4.65625 Z M 7.859375 -2.46875 L 8.5625 -3.171875 L 8.5625 -8.984375 L 7.859375 -9.6875 L 6.8125 -9.6875 L 4.84375 -8.265625 L 4.84375 -3.90625 L 6.453125 -2.46875 Z M 7.859375 -2.46875" transform="translate(260.849 238.823)"/></g></g></g><g fill="#223E5C"><g><g><path d="M 1.453125 -12.171875 L 3.921875 -12.171875 L 4.71875 -10.5625 L 4.84375 -10.5625 L 6.8125 -12.28125 L 9.90625 -12.28125 L 11.953125 -10.25 L 11.953125 -1.921875 L 9.90625 0.125 L 6.5625 0.125 L 4.84375 -1.59375 L 4.84375 4.65625 L 1.453125 4.65625 Z M 7.859375 -2.46875 L 8.5625 -3.171875 L 8.5625 -8.984375 L 7.859375 -9.6875 L 6.8125 -9.6875 L 4.84375 -8.265625 L 4.84375 -3.90625 L 6.453125 -2.46875 Z M 7.859375 -2.46875" transform="translate(281.402 238.823)"/></g></g></g><g fill="#223E5C"><g><g><path d="M 1.328125 -1.921875 L 1.328125 -10.25 L 3.375 -12.28125 L 9.640625 -12.28125 L 11.6875 -10.25 L 11.6875 -4.921875 L 4.71875 -4.921875 L 4.71875 -2.953125 L 5.453125 -2.234375 L 8.53125 -2.234375 L 9.734375 -3.484375 L 11.96875 -1.8125 L 10.109375 0.125 L 3.375 0.125 Z M 8.3125 -7.078125 L 8.3125 -9.203125 L 7.578125 -9.9375 L 5.453125 -9.9375 L 4.71875 -9.203125 L 4.71875 -7.078125 Z M 8.3125 -7.078125" transform="translate(301.955 238.823)"/></g></g></g><g fill="#223E5C"><g><g><path d="M 1.453125 -1.921875 L 1.453125 -12.171875 L 4.84375 -12.171875 L 4.84375 -3.171875 L 5.546875 -2.46875 L 6.59375 -2.46875 L 8.5625 -3.90625 L 8.5625 -12.171875 L 11.953125 -12.171875 L 11.953125 0 L 9.46875 0 L 8.671875 -1.59375 L 8.5625 -1.59375 L 6.59375 0.125 L 3.484375 0.125 Z M 1.453125 -1.921875" transform="translate(322.41 238.823)"/></g></g></g><g fill="#223E5C"><g><g><path d="M 1.453125 -12.171875 L 3.921875 -12.171875 L 4.71875 -10.5625 L 4.84375 -10.5625 L 6.671875 -12.171875 L 9.140625 -12.171875 L 9.140625 -9.109375 L 6.515625 -9.109375 L 4.84375 -7.75 L 4.84375 0 L 1.453125 0 Z M 1.453125 -12.171875" transform="translate(343.085 238.823)"/></g></g></g><g fill="#223E5C"><g><g><path d="M 0.359375 -12.171875 L 3.75 -12.171875 L 5.28125 -3.34375 L 5.40625 -3.34375 L 7.171875 -12.171875 L 11.09375 -12.171875 L 12.84375 -3.34375 L 12.96875 -3.34375 L 14.609375 -12.171875 L 17.46875 -12.171875 L 14.984375 0 L 10.546875 0 L 8.984375 -7.703125 L 8.890625 -7.703125 L 7.375 0 L 2.859375 0 Z M 0.359375 -12.171875" transform="translate(196.094 271.823)"/></g></g></g><g fill="#223E5C"><g><g><path d="M 1.328125 -1.921875 L 1.328125 -10.25 L 3.375 -12.28125 L 9.640625 -12.28125 L 11.6875 -10.25 L 11.6875 -4.921875 L 4.71875 -4.921875 L 4.71875 -2.953125 L 5.453125 -2.234375 L 8.53125 -2.234375 L 9.734375 -3.484375 L 11.96875 -1.8125 L 10.109375 0.125 L 3.375 0.125 Z M 8.3125 -7.078125 L 8.3125 -9.203125 L 7.578125 -9.9375 L 5.453125 -9.9375 L 4.71875 -9.203125 L 4.71875 -7.078125 Z M 8.3125 -7.078125" transform="translate(221.203 271.823)"/></g></g></g><g fill="#223E5C"><g><g><path d="M 4.84375 -1.59375 L 4.71875 -1.59375 L 3.921875 0 L 1.453125 0 L 1.453125 -16.8125 L 4.84375 -16.8125 L 4.84375 -10.5625 L 6.5625 -12.28125 L 9.90625 -12.28125 L 11.953125 -10.25 L 11.953125 -1.921875 L 9.90625 0.125 L 6.8125 0.125 Z M 7.859375 -2.46875 L 8.5625 -3.171875 L 8.5625 -8.984375 L 7.859375 -9.6875 L 6.453125 -9.6875 L 4.84375 -8.265625 L 4.84375 -3.90625 L 6.8125 -2.46875 Z M 7.859375 -2.46875" transform="translate(241.659 271.823)"/></g></g></g><g fill="#223E5C"><g><g><path d="M 1.328125 -1.921875 L 1.328125 -10.25 L 3.375 -12.28125 L 9.640625 -12.28125 L 11.6875 -10.25 L 11.6875 -4.921875 L 4.71875 -4.921875 L 4.71875 -2.953125 L 5.453125 -2.234375 L 8.53125 -2.234375 L 9.734375 -3.484375 L 11.96875 -1.8125 L 10.109375 0.125 L 3.375 0.125 Z M 8.3125 -7.078125 L 8.3125 -9.203125 L 7.578125 -9.9375 L 5.453125 -9.9375 L 4.71875 -9.203125 L 4.71875 -7.078125 Z M 7.4375 -17.421875 L 11.609375 -17.421875 L 7.734375 -14.28125 L 4.890625 -14.28125 Z M 7.4375 -17.421875" transform="translate(136.586 304.823)"/></g></g></g><g fill="#223E5C"><g><g><path d="M 1.59375 -2.03125 L 1.59375 -9.734375 L 0.125 -9.734375 L 0.125 -12.171875 L 1.59375 -12.171875 L 1.59375 -13.515625 L 3.6875 -15.3125 L 5 -15.3125 L 5 -12.171875 L 7.34375 -12.171875 L 7.34375 -9.734375 L 5 -9.734375 L 5 -3.75 L 5.6875 -3.046875 L 7.78125 -3.046875 L 7.78125 0 L 3.640625 0 Z M 1.59375 -2.03125" transform="translate(157.042 304.823)"/></g></g></g><g fill="#223E5C"><g><g><path d="M 1.453125 -1.921875 L 1.453125 -12.171875 L 4.84375 -12.171875 L 4.84375 -3.171875 L 5.546875 -2.46875 L 6.59375 -2.46875 L 8.5625 -3.90625 L 8.5625 -12.171875 L 11.953125 -12.171875 L 11.953125 0 L 9.46875 0 L 8.671875 -1.59375 L 8.5625 -1.59375 L 6.59375 0.125 L 3.484375 0.125 Z M 1.453125 -1.921875" transform="translate(172.82 304.823)"/></g></g></g><g fill="#223E5C"><g><g><path d="M 1.328125 -1.921875 L 1.328125 -10.25 L 3.375 -12.28125 L 6.71875 -12.28125 L 8.4375 -10.5625 L 8.4375 -16.8125 L 11.828125 -16.8125 L 11.828125 0 L 9.359375 0 L 8.5625 -1.59375 L 8.4375 -1.59375 L 6.46875 0.125 L 3.375 0.125 Z M 6.46875 -2.46875 L 8.4375 -3.90625 L 8.4375 -8.265625 L 6.828125 -9.6875 L 5.421875 -9.6875 L 4.71875 -8.984375 L 4.71875 -3.171875 L 5.421875 -2.46875 Z M 6.46875 -2.46875" transform="translate(193.495 304.823)"/></g></g></g><g fill="#223E5C"><g><g><path d="M 1.453125 -12.171875 L 4.84375 -12.171875 L 4.84375 0 L 1.453125 0 Z M 1.453125 -16.84375 L 4.84375 -16.84375 L 4.84375 -14.03125 L 1.453125 -14.03125 Z M 1.453125 -16.84375" transform="translate(214.048 304.823)"/></g></g></g><g fill="#223E5C"><g><g><path d="M 0.96875 -1.921875 L 0.96875 -5.375 L 3 -7.421875 L 8.0625 -7.421875 L 8.0625 -9.203125 L 7.34375 -9.9375 L 4.703125 -9.9375 L 3.375 -8.875 L 1.40625 -10.71875 L 3.078125 -12.28125 L 9.421875 -12.28125 L 11.46875 -10.25 L 11.46875 0 L 8.96875 0 L 8.171875 -1.59375 L 8.0625 -1.59375 L 6.078125 0.125 L 3 0.125 Z M 6.0625 -2.234375 L 8.0625 -3.78125 L 8.0625 -5.140625 L 5.0625 -5.140625 L 4.359375 -4.4375 L 4.359375 -2.953125 L 5.09375 -2.234375 Z M 6.0625 -2.234375" transform="translate(227.621 304.823)"/></g></g></g><g fill="#223E5C"><g><g><path d="M 1.453125 -12.171875 L 3.921875 -12.171875 L 4.71875 -10.5625 L 4.84375 -10.5625 L 6.8125 -12.28125 L 9.90625 -12.28125 L 11.953125 -10.25 L 11.953125 0 L 8.5625 0 L 8.5625 -8.984375 L 7.859375 -9.6875 L 6.8125 -9.6875 L 4.84375 -8.265625 L 4.84375 0 L 1.453125 0 Z M 1.453125 -12.171875" transform="translate(247.81 304.823)"/></g></g></g><g fill="#223E5C"><g><g><path d="M 1.59375 -2.03125 L 1.59375 -9.734375 L 0.125 -9.734375 L 0.125 -12.171875 L 1.59375 -12.171875 L 1.59375 -13.515625 L 3.6875 -15.3125 L 5 -15.3125 L 5 -12.171875 L 7.34375 -12.171875 L 7.34375 -9.734375 L 5 -9.734375 L 5 -3.75 L 5.6875 -3.046875 L 7.78125 -3.046875 L 7.78125 0 L 3.640625 0 Z M 1.59375 -2.03125" transform="translate(268.485 304.823)"/></g></g></g><g fill="#223E5C"><g><g><path d="M 7.515625 -18.171875 L 10.640625 -18.171875 L 3.109375 4.65625 L 0 4.65625 Z M 7.515625 -18.171875" transform="translate(296.625 304.823)"/></g></g></g><g fill="#223E5C"><g><g><path d="M 1.21875 -2.859375 L 8.34375 -6.0625 L 8.34375 -6.109375 L 1.21875 -9.3125 L 1.21875 -12.171875 L 11.046875 -7.4375 L 11.046875 -4.71875 L 1.21875 0 Z M 1.21875 -2.859375" transform="translate(314.537 304.823)"/></g></g></g></svg>